<svg width="62" height="56" viewBox="412 614 62 56" xmlns="http://www.w3.org/2000/svg" xmlns:xlink="http://www.w3.org/1999/xlink"><g><g transform="translate(421.890625, 623.8125)  rotate(0)  "><g><path d="M23.3688 24.998399999999997 C22.066799999999997 25.883999999999997, 19.9374 25.883999999999997, 18.6312 24.998399999999997 M23.3688 24.998399999999997 C22.066799999999997 25.883999999999997, 19.9374 25.883999999999997, 18.6312 24.998399999999997 M18.6312 24.998399999999997 C12.903612585047856 21.10389141184788, 7.176025170095711 17.209382823695762, 0 12.33 M18.6312 24.998399999999997 C14.508421529326066 22.195091207335775, 10.385643058652132 19.391782414671553, 0 12.33 M0 12.33 C0 17.271776152238512, 0 22.213552304477023, 0 29.6856 M0 12.33 C0 16.268291233983973, 0 20.206582467967944, 0 29.6856 M0 29.6856 C0 31.266000000000002, 1.5077999999999998 32.5548, 3.3474 32.5548 M0 29.6856 C0 31.266000000000002, 1.5077999999999998 32.5548, 3.3474 32.5548 M3.3474 32.5548 C13.807611176814044 32.5548, 24.267822353628087 32.5548, 38.648399999999995 32.5548 M3.3474 32.5548 C11.377029885447119 32.5548, 19.406659770894237 32.5548, 38.648399999999995 32.5548 M38.648399999999995 32.5548 C40.4922 32.5548, 41.995799999999996 31.2624, 41.995799999999996 29.6856 M38.648399999999995 32.5548 C40.4922 32.5548, 41.995799999999996 31.2624, 41.995799999999996 29.6856 M41.995799999999996 29.6856 C41.995799999999996 23.561578638289312, 41.995799999999996 17.43755727657862, 41.995799999999996 12.33 M41.995799999999996 29.6856 C41.995799999999996 24.831552223893667, 41.995799999999996 19.97750444778733, 41.995799999999996 12.33 M41.995799999999996 12.33 C37.988892603465075 15.05513585989494, 33.98198520693015 17.780271719789877, 23.3688 24.998399999999997 M41.995799999999996 12.33 C37.026015098589 15.709998016053847, 32.05623019717801 19.089996032107695, 23.3688 24.998399999999997 M23.3688 24.998399999999997 C23.3688 24.998399999999997, 23.3688 24.998399999999997, 23.3688 24.998399999999997 M23.3688 24.998399999999997 C23.3688 24.998399999999997, 23.3688 24.998399999999997, 23.3688 24.998399999999997" stroke="#000000" stroke-width="2" fill="none" vector-effect="non-scaling-stroke" data-shape-part="outline" stroke-opacity="1" fill-opacity="1"></path></g><g><path d="M42 6.318 C42 4.7376, 40.4922 3.4488000000000008, 38.6526 3.4488000000000008 M42 6.318 C42 4.7376, 40.4922 3.4488000000000008, 38.6526 3.4488000000000008 M38.6526 3.4488000000000008 C27.799105903947762 3.4488000000000008, 16.945611807895524 3.4488000000000008, 3.3474 3.4488000000000008 M38.6526 3.4488000000000008 C30.84013926409263 3.4488000000000008, 23.027678528185263 3.4488000000000008, 3.3474 3.4488000000000008 M3.3474 3.4488000000000008 C1.5077999999999998 3.4452, 0 4.7376, 0 6.318 M3.3474 3.4488000000000008 C1.5077999999999998 3.4452, 0 4.7376, 0 6.318 M0 6.318 C0 7.6552270389583335, 0 8.992454077916667, 0 10.2528 M0 6.318 C0 7.8891851464108, 0 9.460370292821601, 0 10.2528 M0 10.2528 C5.520701580053196 14.006635281503387, 11.041403160106391 17.760470563006773, 18.6312 22.9212 M0 10.2528 C4.237886754532233 13.134377384232693, 8.475773509064465 16.015954768465384, 18.6312 22.9212 M18.6312 22.9212 C19.9332 23.8068, 22.066799999999997 23.8068, 23.3688 22.9212 M18.6312 22.9212 C19.9332 23.8068, 22.066799999999997 23.8068, 23.3688 22.9212 M23.3688 22.9212 C29.942924017279967 18.449813318145274, 36.517048034559934 13.97842663629055, 42 10.2492 M23.3688 22.9212 C28.57961005129136 19.377070530617235, 33.79042010258272 15.832941061234473, 42 10.2492 M42 10.2492 C42 9.403548292411118, 42 8.557896584822238, 42 6.318 M42 10.2492 C42 9.200334460491389, 42 8.151468920982778, 42 6.318 M42 6.318 C42 6.318, 42 6.318, 42 6.318 M42 6.318 C42 6.318, 42 6.318, 42 6.318" stroke="#000000" stroke-width="2" fill="none" vector-effect="non-scaling-stroke" data-shape-part="outline" stroke-opacity="1" fill-opacity="1"></path></g></g></g><defs><style>@import url("https://www.dafontfree.net/embed/Y29taWMtc2Fucy1tcy1yZWd1bGFyJmRhdGEvNDAvYy8xMDA5MzQvQ09NSUMuVFRG");text {white-space: pre;};
</style></defs></svg>