<svg width="57" height="58" viewBox="411 485 57 58" xmlns="http://www.w3.org/2000/svg" xmlns:xlink="http://www.w3.org/1999/xlink"><g><g transform="translate(420.7695605353015, 495.1661482126537)  rotate(0)  "><g><path d="M31.57164079968961 23.485396533039026 C30.216425302818273 22.145197274360168, 28.51959038706801 22.145197274360168, 27.171883009292912 23.485396533039026 M31.57164079968961 23.485396533039026 C30.216425302818273 22.145197274360168, 28.51959038706801 22.145197274360168, 27.171883009292912 23.485396533039026 M27.171883009292912 23.485396533039026 C26.143270693108022 24.50650073012768, 25.114658376923124 25.523850867668216, 24.104816358478832 26.559971302949346 M27.171883009292912 23.485396533039026 C26.143270693108022 24.50650073012768, 25.114658376923124 25.523850867668216, 24.104816358478832 26.559971302949346 M24.104816358478832 26.559971302949346 C23.827015951917947 26.845279828606472, 23.594264259934505 26.905344781376392, 23.256398900603703 26.713887744422266 M24.104816358478832 26.559971302949346 C23.827015951917947 26.845279828606472, 23.594264259934505 26.905344781376392, 23.256398900603703 26.713887744422266 M23.256398900603703 26.713887744422266 C22.591930360586453 26.34974396825462, 21.882413105991763 26.05692732350126, 21.244222982811355 25.658997011400533 M23.256398900603703 26.713887744422266 C22.591930360586453 26.34974396825462, 21.882413105991763 26.05692732350126, 21.244222982811355 25.658997011400533 M21.244222982811355 25.658997011400533 C18.263499701604037 23.781967237340506, 15.767050102104205 21.371861007447436, 13.552154968713374 18.65767595415664 M21.244222982811355 25.658997011400533 C18.263499701604037 23.781967237340506, 15.767050102104205 21.371861007447436, 13.552154968713374 18.65767595415664 M13.552154968713374 18.65767595415664 C12.45596958066232 17.309968576381547, 11.479914098151108 15.864655650355326, 10.79667526039326 14.242901925567464 M13.552154968713374 18.65767595415664 C12.45596958066232 17.309968576381547, 11.479914098151108 15.864655650355326, 10.79667526039326 14.242901925567464 M10.79667526039326 14.242901925567464 C10.657775057112817 13.916298744881022, 10.684053473949657 13.698563291090057, 10.95059170186618 13.432025063173535 M10.79667526039326 14.242901925567464 C10.657775057112817 13.916298744881022, 10.684053473949657 13.698563291090057, 10.95059170186618 13.432025063173535 M10.95059170186618 13.432025063173535 C11.979204018051075 12.437199282921723, 12.981537917399129 11.419849145381189, 13.99137993584342 10.398744948292537 M10.95059170186618 13.432025063173535 C11.979204018051075 12.437199282921723, 12.981537917399129 11.419849145381189, 13.99137993584342 10.398744948292537 M13.99137993584342 10.398744948292537 C15.39915226638844 8.979710439103158, 15.39915226638844 7.324170178382217, 13.983871816747179 5.897627550096598 M13.99137993584342 10.398744948292537 C15.39915226638844 8.979710439103158, 15.39915226638844 7.324170178382217, 13.983871816747179 5.897627550096598 M13.983871816747179 5.897627550096598 C13.180503073449488 5.086750687702668, 12.377134330151799 4.290890063501217, 11.573765586854108 3.476259141559166 M13.983871816747179 5.897627550096598 C13.180503073449488 5.086750687702668, 12.377134330151799 4.290890063501217, 11.573765586854108 3.476259141559166 M11.573765586854108 3.476259141559166 C10.744118426719577 2.646611981424635, 9.921979385681286 1.8094567021938641, 9.084824106450515 0.9873176611555735 M11.573765586854108 3.476259141559166 C10.744118426719577 2.646611981424635, 9.921979385681286 1.8094567021938641, 9.084824106450515 0.9873176611555735 M9.084824106450515 0.9873176611555735 C7.729608609579178 -0.3341112997826837, 6.032773693828916 -0.3341112997826837, 4.685066316053818 0.9948257802518136 M9.084824106450515 0.9873176611555735 C7.729608609579178 -0.3341112997826837, 6.032773693828916 -0.3341112997826837, 4.685066316053818 0.9948257802518136 M4.685066316053818 0.9948257802518136 C3.6489458807726844 2.015929977340467, 2.6541201005208714 3.059558531717841, 1.5992293674991374 4.0618924310658935 M4.685066316053818 0.9948257802518136 C3.6489458807726844 2.015929977340467, 2.6541201005208714 3.059558531717841, 1.5992293674991374 4.0618924310658935 M1.5992293674991374 4.0618924310658935 C0.6231738849879247 4.985391079903425, 0.13139208418419823 6.119117063435682, 0.026278416836836783 7.440546024373937 M1.5992293674991374 4.0618924310658935 C0.6231738849879247 4.985391079903425, 0.13139208418419823 6.119117063435682, 0.026278416836836783 7.440546024373937 M0.026278416836836783 7.440546024373937 C-0.13890020328044536 9.591622145446726, 0.3904221930044815 11.622568360979672, 1.1337259835322513 13.600957742838938 M0.026278416836836783 7.440546024373937 C-0.13890020328044536 9.591622145446726, 0.3904221930044815 11.622568360979672, 1.1337259835322513 13.600957742838938 M1.1337259835322513 13.600957742838938 C2.654120100520871 17.69663670983791, 4.9703748417109415 21.33432041196624, 7.778411383704738 24.67167935024496 M1.1337259835322513 13.600957742838938 C2.654120100520871 17.69663670983791, 4.9703748417109415 21.33432041196624, 7.778411383704738 24.67167935024496 M7.778411383704738 24.67167935024496 C11.57376558685411 29.187812986633382, 16.10491546143501 32.757923616895546, 21.4018934838324 35.3332084669059 M7.778411383704738 24.67167935024496 C11.57376558685411 29.187812986633382, 16.10491546143501 32.757923616895546, 21.4018934838324 35.3332084669059 M21.4018934838324 35.3332084669059 C23.78572129688863 36.489458807726876, 26.259646539099744 37.382924980179446, 28.947553175553697 37.529333302556125 M21.4018934838324 35.3332084669059 C23.78572129688863 36.489458807726876, 26.259646539099744 37.382924980179446, 28.947553175553697 37.529333302556125 M28.947553175553697 37.529333302556125 C30.79830453277688 37.63444696990349, 32.40504201937226 37.16518952638848, 33.69268444437744 35.723630659910384 M28.947553175553697 37.529333302556125 C30.79830453277688 37.63444696990349, 32.40504201937226 37.16518952638848, 33.69268444437744 35.723630659910384 M33.69268444437744 35.723630659910384 C34.574888438185646 34.74006705830293, 35.56971421843746 33.83909276675412, 36.500720986371235 32.89682382017599 M33.69268444437744 35.723630659910384 C34.574888438185646 34.74006705830293, 35.56971421843746 33.83909276675412, 36.500720986371235 32.89682382017599 M36.500720986371235 32.89682382017599 C37.88221490007942 31.496559608727207, 37.89347707872378 29.80347875252507, 36.51949128411184 28.42198483881689 M36.500720986371235 32.89682382017599 C37.88221490007942 31.496559608727207, 37.89347707872378 29.80347875252507, 36.51949128411184 28.42198483881689 M36.51949128411184 28.42198483881689 C34.87145914248713 26.766444578095946, 33.223427000862436 25.12592055556749, 31.57164079968961 23.485396533039026 M36.51949128411184 28.42198483881689 C34.87145914248713 26.766444578095946, 33.223427000862436 25.12592055556749, 31.57164079968961 23.485396533039026 M31.57164079968961 23.485396533039026 C31.57164079968961 23.485396533039026, 31.57164079968961 23.485396533039026, 31.57164079968961 23.485396533039026 M31.57164079968961 23.485396533039026 C31.57164079968961 23.485396533039026, 31.57164079968961 23.485396533039026, 31.57164079968961 23.485396533039026" stroke="#000000" stroke-width="2" fill="none" vector-effect="non-scaling-stroke" data-shape-part="outline" stroke-opacity="1" fill-opacity="0.24"></path></g></g></g><defs><style>@import url("https://www.dafontfree.net/embed/Y29taWMtc2Fucy1tcy1yZWd1bGFyJmRhdGEvNDAvYy8xMDA5MzQvQ09NSUMuVFRG");text {white-space: pre;};
</style></defs></svg>