<?xml version="1.0" standalone="no"?>
<!DOCTYPE svg PUBLIC "-//W3C//DTD SVG 20010904//EN"
 "http://www.w3.org/TR/2001/REC-SVG-20010904/DTD/svg10.dtd">
<svg version="1.0" xmlns="http://www.w3.org/2000/svg"
 width="500.000000pt" height="500.000000pt" viewBox="0 0 500.000000 500.000000"
 preserveAspectRatio="xMidYMid meet">

<g transform="translate(0.000000,500.000000) scale(0.100000,-0.100000)"
fill="#000000" stroke="none">
<path d="M733 3033 c4 -434 7 -908 7 -1055 l0 -268 76 0 76 0 -7 980 -8 980
1617 0 1616 0 0 -402 c0 -222 3 -663 7 -980 l6 -578 75 0 75 0 -6 518 c-4 284
-7 759 -7 1055 l0 537 -1767 0 -1766 0 6 -787z"/>
<path d="M1180 2785 l0 -385 70 0 c68 0 70 1 70 26 l0 25 29 -20 c42 -30 109
-45 164 -37 136 21 225 195 184 360 -32 129 -108 197 -219 197 -61 0 -103 -13
-135 -43 l-23 -21 0 141 0 142 -70 0 -70 0 0 -385z m315 41 c91 -38 112 -208
35 -281 -59 -56 -163 -38 -202 35 -42 80 -13 210 54 243 41 20 69 21 113 3z"/>
<path d="M1992 2949 c-134 -17 -220 -141 -210 -302 7 -107 54 -183 143 -230
62 -33 192 -30 260 5 28 14 58 34 67 45 17 18 16 21 -22 58 -35 34 -43 38 -58
27 -86 -62 -200 -54 -237 18 -31 61 -33 60 170 60 l185 0 0 58 c0 103 -50 201
-122 238 -42 22 -113 31 -176 23z m104 -115 c36 -17 64 -58 64 -94 0 -19 -6
-20 -121 -20 l-121 0 6 32 c8 39 31 66 71 84 40 18 60 17 101 -2z"/>
<path d="M2539 2949 c-112 -17 -174 -93 -155 -193 11 -57 56 -92 154 -122 102
-31 112 -37 112 -75 0 -60 -101 -82 -159 -34 -16 14 -33 35 -36 45 -6 19 -7
19 -53 -3 -26 -12 -49 -23 -51 -24 -13 -9 34 -76 69 -102 77 -55 186 -64 269
-21 56 28 84 72 89 139 5 93 -38 141 -166 181 -87 27 -102 37 -102 65 0 54 90
62 145 14 l36 -32 44 24 c25 13 45 29 45 35 0 13 -58 68 -87 83 -36 19 -104
27 -154 20z"/>
<path d="M3599 2949 c-112 -17 -174 -93 -155 -193 11 -57 56 -92 154 -122 102
-31 112 -37 112 -75 0 -60 -101 -82 -159 -34 -16 14 -33 35 -36 45 -6 19 -7
19 -53 -3 -26 -12 -49 -23 -51 -24 -13 -9 34 -76 69 -102 77 -55 186 -64 269
-21 56 28 84 72 89 139 5 93 -38 141 -166 181 -87 27 -102 37 -102 65 0 54 90
62 145 14 l36 -32 44 24 c25 13 45 29 45 35 0 13 -58 68 -87 83 -36 19 -104
27 -154 20z"/>
<path d="M2830 2932 c0 -4 45 -120 100 -257 55 -137 100 -254 100 -260 0 -6
-20 -61 -45 -123 -25 -61 -45 -114 -45 -117 0 -3 31 -5 69 -5 l69 0 151 378
c83 207 151 380 151 385 0 4 -31 7 -69 7 l-68 0 -68 -185 c-38 -102 -71 -182
-75 -178 -4 4 -36 88 -71 186 l-63 177 -68 0 c-37 0 -68 -4 -68 -8z"/>
<path d="M1870 1990 c0 -5 25 -10 55 -10 l55 0 0 -105 c0 -63 4 -105 10 -105
6 0 10 42 10 105 l0 105 56 0 c34 0 53 4 49 10 -4 6 -55 10 -121 10 -69 0
-114 -4 -114 -10z"/>
<path d="M2160 1885 l0 -115 110 0 c67 0 110 4 110 10 0 6 -40 10 -100 10
l-100 0 0 40 0 40 89 0 c50 0 93 5 96 10 4 6 -28 10 -89 10 l-96 0 0 45 0 45
100 0 c60 0 100 4 100 10 0 6 -43 10 -110 10 l-110 0 0 -115z"/>
<path d="M2502 1986 c-64 -30 -80 -133 -28 -185 21 -20 38 -26 90 -29 82 -5
132 11 151 49 20 37 10 37 -25 -1 -26 -28 -33 -30 -98 -30 -60 0 -75 4 -99 24
-23 20 -28 32 -28 70 0 63 26 88 99 94 71 6 102 -3 132 -35 25 -27 39 -27 28
0 -18 47 -154 73 -222 43z"/>
<path d="M2818 1994 c-12 -11 -10 -224 2 -224 6 0 10 23 10 50 l0 50 110 0
110 0 0 -50 c0 -27 5 -50 10 -50 6 0 10 45 10 115 0 70 -4 115 -10 115 -5 0
-10 -25 -10 -55 l0 -55 -110 0 -109 0 -3 56 c-2 31 -6 52 -10 48z"/>
<path d="M730 1255 l0 -75 1770 0 1770 0 0 75 0 75 -1770 0 -1770 0 0 -75z"/>
</g>
</svg>
