<svg width="1153" height="1080" viewBox="0 0 1153 1080" xmlns="http://www.w3.org/2000/svg" xmlns:xlink="http://www.w3.org/1999/xlink"><g><g transform="translate(14.393021764923509, 101.78522909180379)  rotate(0)  "><g><path d="M1.2523082932457328 0.17362326476722956 L1127.3973656111 1.9460689136758447 L1131.12128407886 875.5819062444348 L-0.43479250464588404 876.4984883221764" stroke="none" stroke-width="0" fill="#616161" vector-effect="non-scaling-stroke" data-shape-part="fill" stroke-opacity="0.03" fill-opacity="0.03"></path><path d="M0 0 C360.2317449106019 2.2161894830659388, 719.6511122487716 2.1823113593057153, 1128.428752032162 0 M0 0 C278.73057414981565 -6.963077685624931, 557.7113595058961 -6.218810227901314, 1128.428752032162 0 M1128.428752032162 0 C1132.2103379953342 339.51563259550386, 1132.1572724926905 681.7229549508731, 1128.428752032162 876.3674800836448 M1128.428752032162 0 C1126.7068472292065 339.8152420199906, 1126.7992324318527 680.5553952109927, 1128.428752032162 876.3674800836448 M1128.428752032162 876.3674800836448 C714.6997191401634 880.1058443630737, 302.74854817673196 881.5391972268624, 0 876.3674800836448 M1128.428752032162 876.3674800836448 C842.9533280628458 881.2667246950908, 556.0847764407131 881.3359154773993, 0 876.3674800836448 M0 876.3674800836448 C4.419051601607978 612.8489537774835, 5.020398177821815 348.18287298470483, 0 0 M0 876.3674800836448 C1.2878244457154362 669.1315569631248, 1.1072577593236057 461.3836956936816, 0 0" stroke="#000000" stroke-width="2" fill="none" vector-effect="non-scaling-stroke" data-shape-part="outline" stroke-opacity="1" fill-opacity="0.03"></path></g></g><g transform="translate(70.81445936653161, 145.60360309598602) rotate(0)"><text transform="translate(0, 382)" style="font-size: 24px; font-family: &quot;Comic Sans MS&quot;; fill: rgb(17, 17, 17); opacity: 1; stroke-width: 0; font-style: normal; font-weight: normal; text-decoration: none;"></text></g></g><g><g transform="translate(10.178226202914402, -0.07233032341628132)  rotate(0)  "><g><path d="M0.4440605092793703 -0.15515657551586626 L1128.865695305781 0.6887608539313077 L1128.4039321503205 83.31376089518461 L-0.6058407735079526 83.0542992657939" stroke="none" stroke-width="0" fill="#616161" vector-effect="non-scaling-stroke" data-shape-part="fill" stroke-opacity="0.1" fill-opacity="0.1"></path><path d="M0 0 C266.3762057270009 -1.0911034539439688, 532.770914876292 -1.0465068057277211, 1128.428752032162 0 M0 0 C237.42029674185775 1.2782846357832505, 474.7829055922173 1.4238670566092089, 1128.428752032162 0 M1128.428752032162 0 C1127.9802328239261 18.959528160229947, 1128.9030092011271 39.55579677362864, 1128.428752032162 82.99427726817821 M1128.428752032162 0 C1128.2974593701153 28.691137205953325, 1128.6405895950584 58.18960684361791, 1128.428752032162 82.99427726817821 M1128.428752032162 82.99427726817821 C786.0956574634358 84.42022482350112, 443.3734940380233 84.45941467240095, 0 82.99427726817821 M1128.428752032162 82.99427726817821 C816.9529420347936 81.42458524841621, 505.3152526090236 81.49553952593162, 0 82.99427726817821 M0 82.99427726817821 C0.4216417048460664 64.4109572718497, 0.03731740455691239 45.032497802962084, 0 0 M0 82.99427726817821 C-0.04937314210277394 51.52763811813366, 0.013390185257379283 20.387702492119857, 0 0" stroke="#000000" stroke-width="2" fill="none" vector-effect="non-scaling-stroke" data-shape-part="outline" stroke-opacity="1" fill-opacity="0.1"></path></g></g><g transform="translate(66.5996638045225, 4.0773835399926295) rotate(0)"><text transform="translate(0, 25)" style="font-size: 24px; font-family: &quot;Comic Sans MS&quot;; fill: rgb(17, 17, 17); opacity: 1; stroke-width: 0; font-style: normal; font-weight: normal; text-decoration: none;"></text></g></g><g><g transform="translate(41.789192917982696, -0.07233032341628132)  rotate(0)  "><g><path d="M61.372309529807495 6.437630690488383 C67.74087013037767 9.933159032290432, 74.46880791601693 18.089118004411475, 77.65477081371878 24.564286913101387 C80.84073371142064 31.0394558217913, 81.61607330844049 38.532110242936604, 80.4880869160186 45.28864414262787 C79.36010052359671 52.04517804231913, 75.57948740110444 59.64166271375798, 70.88685245918742 65.10349031124898 C66.1942175172704 70.56531790873997, 59.282218870234395 75.57323300931658, 52.332277264516435 78.05960972757381 C45.382335658798475 80.54598644583105, 36.22202254656608 82.01682579384088, 29.187202824879662 80.02175062079239 C22.152383103193245 78.0266754477439, 15.126337142080963 71.46290453274972, 10.123358934397931 66.08915868928287 C5.1203807267149 60.71541284581601, 0.505201726187763 54.79982076375978, -0.830666421218524 47.77927555999126 C-2.1665345686248108 40.75873035622274, -1.170685591093886 30.60268960834465, 2.1081500499602086 23.965887466671738 C5.386985691014303 17.329085324998825, 12.520824922097862 11.889096795082056, 18.842347425106045 7.9584627099537855 C25.163869928114227 4.027828624825515, 31.10502722036758 -0.9289913620795467, 40.0372850680093 0.3820829559021135 C48.96954291565101 1.6931572738837737, 66.09671573832692 11.825959414091622, 72.43589451095632 15.824908617843747 C78.77507328358571 19.823857821595873, 78.99654345584807 24.051138818595923, 78.07235770378566 24.375778178414862 M36.850560771777744 0.11146591814775064 C43.21632970826299 -1.582969304411349, 50.111901356198345 0.5396618901218031, 56.63455238141988 3.972198061165102 C63.157203406641415 7.404734232208401, 72.12840034271875 14.504103260862188, 75.98646692310697 20.706682944407543 C79.8445335034952 26.9092626279529, 80.20331404060151 34.12113488578566, 79.78295186374919 41.187676162437235 C79.36258968689687 48.25421743908881, 77.53943238114726 56.851945832564944, 73.46429386199301 63.105930604316995 C69.38915534283876 69.35991537606904, 62.15044658767369 75.81144377419731, 55.33212074882364 78.71158479294954 C48.51379490997359 81.61172581170176, 39.50820948404005 81.84232341865513, 32.5543388288927 80.5067767168303 C25.60046817374536 79.17123001500548, 18.995472826618116 75.54041973704477, 13.608896817939574 70.69830458200055 C8.222320809261031 65.85618942695632, 2.15038579727371 58.67264471147905, 0.23488277682145053 51.454085786564946 C-1.680620243630809 44.23552686165084, -0.5861003778737568 34.7804032317281, 2.115878695226016 27.38695103251589 C4.817857768325789 19.99349883330368, 10.840300606452736 11.67873485201618, 16.446757215420085 7.093372591291686 C22.053213824387434 2.508010330567192, 32.72500529895284 0.9595559612266253, 35.75461834903012 -0.1252225318310778 C38.7842313991074 -1.210001024888781, 34.82614092006546 0.2183810772348937, 34.624435515883754 0.5847016329454675" stroke="none" stroke-width="0" fill="#616161" vector-effect="non-scaling-stroke" data-shape-part="fill" stroke-opacity="0.26" fill-opacity="0.26"></path><path d="M13.626342667647389 9.912104767748424 C18.671057157709605 4.847741097450975, 27.14944395527694 1.9485101488114522, 34.312657574305035 1.0347976381892323 C41.47587119333313 0.12108512756701251, 50.109446463487835 1.6682754204253984, 56.60562438181595 4.429829704015106 C63.101802300144065 7.191383987604812, 69.36684093678912 11.620840366089045, 73.28972508427373 17.604123339727476 C77.21260923175834 23.587406313365907, 80.01366351613667 33.223011199523285, 80.14292926672361 40.32952754584569 C80.27219501731055 47.4360438921681, 77.56520675337379 54.43416935984141, 74.06531958779536 60.243221417661914 C70.56543242221693 66.05227347548242, 65.41737737347927 71.96250569074815, 59.143606273253056 75.18383989276872 C52.86983517302684 78.40517409478929, 44.01896761633359 80.2478886844455, 36.42269298643807 79.57122662978531 C28.826418356542558 78.89456457512513, 19.313283420382177 75.48268193690433, 13.565958493879961 71.1238675648076 C7.818633567377745 66.76505319271087, 3.894293217963405 60.07852382185712, 1.9387434274247752 53.418340397204915 C-0.016806363113854417 46.75815697255271, -2.1677296090201708 39.69896994986428, 1.8326597506481832 31.162767016894392 C5.833049110316537 22.626564083924507, 19.074110413765478 7.0781585722534786, 25.9410795854349 2.201122799385601 C32.80804875710432 -2.6759129734822764, 42.910322086819775 1.4572486941798968, 43.0344747806647 1.9005523796871273 M31.259191396210355 0.982604816460352 C37.591440601980075 -1.5970441329127287, 46.89980744267856 -1.1921027481033395, 54.01838222818513 0.9914343868965645 C61.136957013691706 3.1749715218964685, 69.49684681470848 7.973555206451835, 73.97064010924981 14.083827626459776 C78.44443340379115 20.194100046467717, 80.57485942389958 30.424098450266253, 80.8611419954332 37.653068906944206 C81.14742456696682 44.882039363622155, 78.94924129282444 51.10537166607598, 75.68833553845154 57.45765036652749 C72.42742978407864 63.809929066978995, 67.13110287538127 71.82116733335918, 61.29570746919584 75.76674110965322 C55.460312063010406 79.71231488594726, 47.787880848613035 81.83165862720868, 40.67596310133896 81.13109302429172 C33.56404535406488 80.43052742137475, 24.94651106046051 76.06865994437871, 18.62420098555137 71.5633474921514 C12.301890910642229 67.05803503992408, 5.845935232496608 60.348719552452344, 2.7421026518841245 54.09921831092778 C-0.36172992872835863 47.84971706940322, -1.1342054610377474 41.03323007800552, 0.0012055018764698389 34.066340043004004 C1.1366164647906871 27.099450008002485, 4.513347622093334 17.998430179329965, 9.554568429369429 12.297878100918666 C14.595789236645523 6.597326022507368, 27.03357758095184 1.6985098112220136, 30.24853034553304 -0.1369724274637818 C33.46348311011425 -1.9724546661495772, 28.69038382958552 0.6972592084327308, 28.844285016856645 1.2849846688038937" stroke="#000000" stroke-width="2" fill="none" vector-effect="non-scaling-stroke" data-shape-part="outline" stroke-opacity="1" fill-opacity="0.26"></path></g></g><g transform="translate(53.91602656869678, 12.054503327297805) rotate(0)"><text transform="translate(0, 16)" style="font-size: 24px; font-family: &quot;Comic Sans MS&quot;; fill: rgb(17, 17, 17); opacity: 1; stroke-width: 0; font-style: normal; font-weight: normal; text-decoration: none;"></text></g></g><g><g id="kiWnfdvfYq-Pa52B6-og8" pointer-events="auto"><g><path data-shape-part="outline" class="" d="M104.904 6.898 C94.93580161205185 22.002750543599017, 84.9676032241037 37.10750108719803, 79.371 45.588 M104.904 6.898 C97.682260300373 17.841058355013843, 90.46052060074601 28.784116710027682, 79.371 45.588 M79.371 45.588 C71.4469692005014 56.534550801007455, 63.522938401002804 67.4811016020149, 59.137 73.54 M79.371 45.588 C72.23001160612647 55.45282690449506, 65.08902321225293 65.31765380899013, 59.137 73.54" stroke="#000000" stroke-width="2" stroke-opacity="1" fill="none" stroke-linecap="round" stroke-dashoffset="-3"></path></g><path d="M104.904,6.898L79.371,45.588L59.137,73.54" fill="none" fill-opacity="0" stroke="black" stroke-opacity="0" stroke-width="10" id="hit-kiWnfdvfYq-Pa52B6-og8"></path></g></g><g><g id="ohNmbvuN_CU8YHpnmMYA_" pointer-events="auto"><g><path data-shape-part="outline" class="" d="M56.384 9.255 C68.85557460898347 23.499130980290474, 81.32714921796695 37.743261960580945, 88.503 45.939 M56.384 9.255 C69.18423304183892 23.87450088442415, 81.98446608367786 38.4940017688483, 88.503 45.939 M88.503 45.939 C96.19640298256093 54.46858789559677, 103.88980596512184 62.998175791193546, 109.968 69.737 M88.503 45.939 C95.4442122070212 53.63464258572981, 102.38542441404239 61.330285171459614, 109.968 69.737" stroke="#000000" stroke-width="2" stroke-opacity="1" fill="none" stroke-linecap="round" stroke-dashoffset="-3"></path></g><path d="M56.384,9.255L88.503,45.939L109.968,69.737" fill="none" fill-opacity="0" stroke="black" stroke-opacity="0" stroke-width="10" id="hit-ohNmbvuN_CU8YHpnmMYA_"></path></g></g><g><g transform="translate(10.178226202914402, 997.078053055238)  rotate(0)  "><g><path d="M-0.19602605793625116 -0.37384264077991247 L1130.670638945007 2.1231699446216226 L1129.9651488625047 80.4056747411335 L1.5674170246347785 83.78147341357116" stroke="none" stroke-width="0" fill="#616161" vector-effect="non-scaling-stroke" data-shape-part="fill" stroke-opacity="0.1" fill-opacity="0.1"></path><path d="M0 0 C298.6035215638761 5.603791102700004, 595.8334097605565 4.827367088131675, 1128.428752032162 0 M0 0 C260.9220401918028 -1.2041320796969606, 522.648758722558 -1.4096747454169465, 1128.428752032162 0 M1128.428752032162 0 C1130.4307826303789 16.431470069279342, 1126.3031423532316 37.167858279662966, 1128.428752032162 82.99427726817821 M1128.428752032162 0 C1128.2676947023754 22.57629887904286, 1127.678919559348 46.612576524359426, 1128.428752032162 82.99427726817821 M1128.428752032162 82.99427726817821 C821.9663127273274 83.30944632799304, 513.2639117920141 84.6809295705048, 0 82.99427726817821 M1128.428752032162 82.99427726817821 C756.305391451429 79.65488291882309, 384.34358111259115 79.44320278667243, 0 82.99427726817821 M0 82.99427726817821 C0.6087347328928264 53.15664543322333, 2.214750385310963 21.452534112972735, 0 0 M0 82.99427726817821 C0.08270940484492273 62.622032961698984, -0.21748293636353522 41.58860616923326, 0 0" stroke="#000000" stroke-width="2" fill="none" vector-effect="non-scaling-stroke" data-shape-part="outline" stroke-opacity="1" fill-opacity="0.1"></path></g></g><g transform="translate(66.5996638045225, 1001.2277669186469) rotate(0)"><text transform="translate(0, 25)" style="font-size: 24px; font-family: &quot;Comic Sans MS&quot;; fill: rgb(17, 17, 17); opacity: 1; stroke-width: 0; font-style: normal; font-weight: normal; text-decoration: none;"></text></g></g><g transform="translate(375.4605082437036, 24.513977121636838) rotate(0)"><text transform="translate(0, 0)" style="font-size: 24px; font-family: Roboto; fill: rgb(17, 17, 17); opacity: 1; stroke-width: 0; font-style: normal; font-weight: normal; text-decoration: none;"><tspan dominant-baseline="text-before-edge" x="0" y="0">Home</tspan></text></g><g transform="translate(505.76793770248514, 24.513977121636838) rotate(0)"><text transform="translate(0, 0)" style="font-size: 24px; font-family: Roboto; fill: rgb(17, 17, 17); opacity: 1; stroke-width: 0; font-style: normal; font-weight: normal; text-decoration: none;"><tspan dominant-baseline="text-before-edge" x="0" y="0">About</tspan></text></g><g transform="translate(635.3729012342651, 24.513977121636838) rotate(0)"><text transform="translate(0, 0)" style="font-size: 24px; font-family: Roboto; fill: rgb(17, 17, 17); opacity: 1; stroke-width: 0; font-style: normal; font-weight: normal; text-decoration: none;"><tspan dominant-baseline="text-before-edge" x="0" y="0">Contact</tspan></text></g><g transform="translate(770.9488251455581, 25.567676012139113) rotate(0)"><text transform="translate(0, 0)" style="font-size: 24px; font-family: Roboto; fill: rgb(17, 17, 17); opacity: 1; stroke-width: 0; font-style: normal; font-weight: normal; text-decoration: none;"><tspan dominant-baseline="text-before-edge" x="0" y="0">Portfolio</tspan></text></g><g transform="translate(920.9253005603821, 24.513977121636838) rotate(0)"><text transform="translate(0, 0)" style="font-size: 24px; font-family: Roboto; fill: rgb(17, 17, 17); opacity: 1; stroke-width: 0; font-style: normal; font-weight: normal; text-decoration: none;"><tspan dominant-baseline="text-before-edge" x="0" y="0">Sign Up</tspan></text></g><g><g transform="translate(420.7695605353015, 108.80988836181896)  rotate(0)  "><g><path d="M0 39.016280119259754 C-0.5285677296668498 87.99904085689826, 2.13996094636617 136.58096258987115, 0 188.58286026956833 M0 39.016280119259754 C0.7154656445301858 87.22988007930715, 0.8307471668042031 139.64081324298323, 0 188.58286026956833 M0 188.58286026956833 C76.36663000832527 190.73316100241905, 148.80540198670494 188.59505823906076, 308.1398504551869 188.58286026956833 M0 188.58286026956833 C103.3079485226291 188.20031237889978, 203.90480699226643 189.0967634109802, 308.1398504551869 188.58286026956833 M308.1398504551869 188.58286026956833 C308.59614701780555 147.62670101961197, 305.5674176982331 111.10055503511633, 308.1398504551869 39.01628011925974 M308.1398504551869 188.58286026956833 C310.0425751830214 131.6415724696893, 311.0093543554419 73.88508671213062, 308.1398504551869 39.01628011925974 M308.1398504551869 39.01628011925974 C231.7843110324079 36.759430298707194, 154.29499357661547 34.790622942736164, 0 39.01628011925974 M308.1398504551869 39.01628011925974 C218.87840051975823 36.97820326835047, 129.10962611306013 37.44565015069045, 0 39.01628011925974 M0 39.01628011925974 C1.8951402003559928e-16 39.01628011925975, 2.1525888541528087e-15 39.01628011925975, 0 39.016280119259754 M0 39.01628011925974 C3.8339706883566276e-16 39.01628011925975, -4.3284898364302233e-16 39.01628011925975, 0 39.016280119259754 M21.53959182651847 48.85013082804208 C26.74001189422831 47.37175845732902, 29.98408302483224 50.67184081315879, 27.888813445147598 53.53590845207267 M21.53959182651847 48.85013082804208 C23.694262228990347 47.589667755607415, 31.28382022106164 53.98604000244174, 27.888813445147598 53.53590845207267 M27.888813445147598 53.53590845207267 C28.355030545472 55.79901779174775, 24.174400186760312 56.23196651176282, 21.53959182651847 58.2260108490002 M27.888813445147598 53.53590845207267 C24.865612252495087 58.488597503043415, 26.376644139772242 60.24982235063531, 21.53959182651847 58.2260108490002 M21.53959182651847 58.2260108490002 C16.89317648243616 55.940585987127506, 17.330603374701035 58.41470194339723, 15.190370207889343 53.53590845207267 M21.53959182651847 58.2260108490002 C21.27286727168123 56.79467363585451, 17.195495075706432 58.90200117502333, 15.190370207889343 53.53590845207267 M15.190370207889343 53.53590845207267 C16.87864440120017 52.66374829053763, 18.226887284733795 50.243386860992665, 21.53959182651847 48.8501308280421 M15.190370207889343 53.53590845207267 C15.735925107628162 50.46072827611003, 16.0477708499436 49.913963103536425, 21.53959182651847 48.8501308280421 M21.53959182651847 48.8501308280421 C21.53959182651847 48.85013082804209, 21.53959182651847 48.85013082804209, 21.53959182651847 48.85013082804208 M21.53959182651847 48.8501308280421 C21.53959182651847 48.85013082804209, 21.53959182651847 48.85013082804208, 21.53959182651847 48.85013082804208 M286.6014911880702 48.85013082804208 C288.4723196238907 46.654095526840436, 290.73866477182867 50.14326861142997, 292.95071280669936 53.53590845207267 M286.6014911880702 48.85013082804208 C292.5410994908469 52.12705336833363, 293.78663148957105 48.044700754022934, 292.95071280669936 53.53590845207267 M292.95071280669936 53.53590845207267 C290.99357301634535 53.93854785442323, 290.4919549562176 55.97416152194806, 286.6014911880702 58.2260108490002 M292.95071280669936 53.53590845207267 C296.24714876361924 57.7934445110333, 290.4084661809867 58.78749234904268, 286.6014911880702 58.2260108490002 M286.6014911880702 58.2260108490002 C280.97115681952044 57.185355917967044, 278.6818342916193 58.73821104049654, 280.25226956944107 53.53590845207267 M286.6014911880702 58.2260108490002 C284.15853662582293 60.49598594535806, 279.7038864833759 53.21955932650686, 280.25226956944107 53.53590845207267 M280.25226956944107 53.53590845207267 C280.6792657294954 51.511804964541234, 285.832497474113 47.70875692000603, 286.6014911880702 48.8501308280421 M280.25226956944107 53.53590845207267 C277.2076608985374 50.075009793377255, 285.1927902178182 47.69978831434613, 286.6014911880702 48.8501308280421 M286.6014911880702 48.8501308280421 C286.6014911880702 48.85013082804209, 286.6014911880702 48.85013082804209, 286.6014911880702 48.85013082804208 M286.6014911880702 48.8501308280421 C286.6014911880702 48.85013082804209, 286.6014911880702 48.85013082804209, 286.6014911880702 48.85013082804208 M21.53959182651848 169.39520864356496 C26.792306637985604 170.36222363785294, 26.78586209702383 169.8371874335516, 27.88881344514761 174.08531104049248 M21.53959182651848 169.39520864356496 C27.632203828578785 168.9395107613915, 30.612602426550193 172.31963400070703, 27.88881344514761 174.08531104049248 M27.88881344514761 174.08531104049248 C30.866141049238685 178.22183358938668, 26.889096581461285 179.7609219876969, 21.539591826518482 178.77108866452306 M27.88881344514761 174.08531104049248 C29.765514448518697 174.47519023482923, 28.267728738570963 177.81377782895356, 21.539591826518482 178.77108866452306 M21.539591826518482 178.77108866452306 C20.50302737853721 179.72408095280767, 14.473141724236376 174.3711252239463, 15.190370207889355 174.08531104049248 M21.539591826518482 178.77108866452306 C16.08149063396499 179.12388370706827, 12.751892637640305 178.3564661449683, 15.190370207889355 174.08531104049248 M15.190370207889355 174.08531104049248 C15.705123557310603 172.2467813733328, 17.790155456778518 169.18060649708298, 21.539591826518482 169.39520864356496 M15.190370207889355 174.08531104049248 C11.802993441347084 168.4239536983255, 18.775455180187635 172.18355517853436, 21.539591826518482 169.39520864356496 M21.539591826518482 169.39520864356496 C21.539591826518482 169.39520864356496, 21.53959182651848 169.39520864356496, 21.53959182651848 169.39520864356496 M21.539591826518482 169.39520864356496 C21.539591826518482 169.39520864356496, 21.53959182651848 169.39520864356496, 21.53959182651848 169.39520864356496 M286.6014911880702 169.39520864356496 C290.59157756344877 170.02498520687607, 291.011459774196 168.7185807469595, 292.95071280669936 174.08531104049248 M286.6014911880702 169.39520864356496 C290.0912294296687 167.7202195094937, 296.2664814288242 174.86887130563295, 292.95071280669936 174.08531104049248 M292.95071280669936 174.08531104049248 C295.60973265341283 179.18807721407387, 289.4970032185944 181.07812157551885, 286.6014911880702 178.77108866452306 M292.95071280669936 174.08531104049248 C295.44991312700125 173.6397178000701, 287.8397298416751 176.33494430258065, 286.6014911880702 178.77108866452306 M286.6014911880702 178.77108866452306 C281.84914278642225 179.11685350815893, 278.0590604463304 177.30967796118233, 280.25226956944107 174.08531104049248 M286.6014911880702 178.77108866452306 C282.15444598359005 180.1074839956978, 278.28332443532446 176.65669069354658, 280.25226956944107 174.08531104049248 M280.25226956944107 174.08531104049248 C279.0619658939066 169.4391297343481, 282.6997893888335 169.17605925873306, 286.6014911880702 169.39520864356496 M280.25226956944107 174.08531104049248 C279.74018905586473 168.34938061659372, 285.92012626620186 169.75746670831379, 286.6014911880702 169.39520864356496 M286.6014911880702 169.39520864356496 C286.6014911880702 169.39520864356496, 286.6014911880702 169.39520864356496, 286.6014911880702 169.39520864356496 M286.6014911880702 169.39520864356496 C286.6014911880702 169.39520864356496, 286.6014911880702 169.39520864356496, 286.6014911880702 169.39520864356496" stroke="#000000" stroke-width="2" fill="none" vector-effect="non-scaling-stroke" data-shape-part="outline" stroke-opacity="1" fill-opacity="0.24"></path></g></g><g transform="translate(436.17655305806085, 131.57185097733716) rotate(0)"><text transform="translate(0, 79)" style="font-size: 24px; font-family: &quot;Comic Sans MS&quot;; fill: rgb(17, 17, 17); opacity: 1; stroke-width: 0; font-style: normal; font-weight: normal; text-decoration: none;"></text></g></g><g transform="translate(511.0364321549965, 202.58908961652156) rotate(0)"><text transform="translate(0, 0)" style="font-size: 33px; font-family: Roboto; fill: rgb(17, 17, 17); opacity: 1; stroke-width: 0; font-style: normal; font-weight: bold; text-decoration: none;"><tspan dominant-baseline="text-before-edge" x="0" y="0">Site Plan</tspan></text></g><g><g transform="translate(49.86755107850015, 1023.0692923542942) rotate(0) scale(0.6409813247454037 0.6409813182906291)  "><g><polygon points="0.5 9.22 0.5 59.12 32.56 50.61 66.51 60.11 100.5 50.73 100.5 1.22 66.81 9.07 32.53 0.5" fill="#616161" stroke="#000000" stroke-width="2" vector-effect="non-scaling-stroke" stroke-opacity="1" fill-opacity="0.24" transform="scale(1 1)" data-target_data=""></polygon></g><g><line x1="32.53" x2="32.53" y1=".5" y2="50.61" fill="#616161" stroke="#000000" stroke-width="2" vector-effect="non-scaling-stroke" stroke-opacity="1" fill-opacity="0.24" transform="scale(1 1)" data-target_data=""></line></g><g><path d="m66.81 9.07" fill="#616161" stroke="#000000" stroke-width="2" vector-effect="non-scaling-stroke" stroke-opacity="1" fill-opacity="0.24" transform="scale(1 1)" data-target_data=""></path></g><g><line x1="66.51" x2="66.81" y1="60.11" y2="9.07" fill="#616161" stroke="#000000" stroke-width="2" vector-effect="non-scaling-stroke" stroke-opacity="1" fill-opacity="0.24" transform="scale(1 1)" data-target_data=""></line></g></g></g><g><g transform="translate(129.94866675667316, 252.81540339713007)  rotate(0)  "><g><path d="M0.31401662807911634 132.2826086944879 L-0.6144268931820989 629.2121657605662 L890.6938433465411 629.1450262244239 L889.8012942192008 131.07932851379516 L1.8479708908125758 131.7888251013101 M64.08412003677866 165.64587567839084 L73.89608340974983 168.1543148289415 L79.17365703865272 172.03505544849935 L81.85477129844284 180.55986778836993 L81.02429154093488 187.7510755926818 L76.04653875383315 189.30639559262335 L63.245719613251886 196.55167183459247 L47.81134315302951 192.1724283718401 L44.638973094504436 187.39250394408407 L46.17098017629092 179.98291729789523 L43.30195882359324 171.71781449505391 L49.05915720072612 169.60923458440033 L62.73499787014505 166.16977010759769 M824.3742006361366 161.26347346696315 L837.4736310119765 165.0916080902311 L843.7713681769512 171.2863984305531 L845.9465534435162 178.11277880173472 L844.1065131009864 184.8049870104045 L841.9192790745657 187.49140385025083 L828.2940189778686 196.14728743017162 L816.2864527822337 187.3263258659178 L810.9396051464992 182.33927195970716 L810.1245577467793 178.2628085206106 L810.4458659457785 174.39549567290845 L815.9219888453113 170.4925365279409 L829.1178099453331 162.02843768987117 M61.602369131264915 567.8896269760247 L75.7722333506006 570.9984905974493 L76.43928268130051 577.4415621766756 L82.68342421678165 581.3210529476013 L78.29445073887095 584.9176874539147 L74.90411066528497 591.6434378772445 L60.666087390599486 595.9663635313963 L48.15150142517912 593.1627642660804 L45.200027966888555 588.4633592745553 L46.77101447280355 579.094608285984 L43.83898279814065 577.7140581617067 L47.07360853722678 571.6730034010038 L62.971790970978965 563.2512518129464 M824.3289025962234 567.5235001704808 L836.9798983692091 573.3335900263414 L842.5385101617621 576.3882577130506 L847.1383560047993 582.4703785270061 L845.904189617648 585.7600910743962 L841.0839703555243 594.7875315993496 L823.7288425505043 595.3576734781717 L812.5886376504527 593.3024806230732 L809.9629917907339 590.6270862898122 L808.5524633659237 582.5511142700519 L809.3540351687388 577.9440254876325 L812.3410937310061 573.5877785043344 L825.5954992711426 567.4115951917287" stroke="none" stroke-width="0" fill="#616161" vector-effect="non-scaling-stroke" data-shape-part="fill" stroke-opacity="0.24" fill-opacity="0.24"></path><path d="M0 130.38595468746283 C-0.9099535501555589 321.27439648723197, -2.6133566514337563 510.80439675776006, 0 630.2127265536606 M0 130.38595468746283 C0.689407381349533 297.8155215477594, 1.675120300219315 465.819763293287, 0 630.2127265536606 M0 630.2127265536606 C234.7828286166717 633.4624413172893, 469.79098467853754 634.6706163685016, 888.7638868032818 630.2127265536606 M0 630.2127265536606 C238.06947853135836 626.5441978119835, 477.5375238476127 626.9658582531437, 888.7638868032818 630.2127265536606 M888.7638868032818 630.2127265536606 C891.3867596670377 487.20490297423095, 892.372788958659 343.4084088920722, 888.7638868032818 130.38595468746277 M888.7638868032818 630.2127265536606 C886.3124069322171 467.4006842409505, 886.2314209289008 305.17017596365764, 888.7638868032818 130.38595468746277 M888.7638868032818 130.38595468746277 C588.1359228148431 126.67821139501102, 286.1692251782681 125.11931262420184, 0 130.38595468746277 M888.7638868032818 130.38595468746277 C664.5148237846071 133.77506967776304, 440.37232645839435 133.52144744985586, 0 130.38595468746277 M0 130.38595468746277 C5.993024391777436e-15 130.3859546874628, -7.722891777575052e-15 130.3859546874628, 0 130.38595468746283 M0 130.38595468746277 C3.87876559960872e-15 130.3859546874628, -2.223646804116508e-15 130.3859546874628, 0 130.38595468746283 M62.126373215323 163.24905719234852 C74.988501393892 163.61493351394228, 77.9431564891079 169.94748389696392, 80.43935310290462 178.90815096281764 M62.126373215323 163.24905719234852 C70.0817505461668 161.6447629709254, 77.04087452197649 170.19464849614226, 80.43935310290462 178.90815096281764 M80.43935310290462 178.90815096281764 C81.84194596676357 189.6011795281325, 73.61880395884779 193.3781240894268, 62.12637321532299 194.58169740897114 M80.43935310290462 178.90815096281764 C82.3641251572521 188.5128836000696, 74.386060435997 194.01553255862507, 62.12637321532299 194.58169740897114 M62.12637321532299 194.58169740897114 C49.85121344773067 194.6767197861145, 41.99539245421919 185.36932649005993, 43.81339332774137 178.90815096281764 M62.12637321532299 194.58169740897114 C53.85075483585676 193.33906602061305, 45.31047793351035 190.86049735344804, 43.81339332774137 178.90815096281764 M43.81339332774137 178.90815096281764 C42.262170518300636 169.58284178351673, 52.50628865672946 161.56652235323483, 62.12637321532299 163.24905719234854 M43.81339332774137 178.90815096281764 C42.274127357238115 167.1514141344341, 54.6622397897739 162.3836655412327, 62.12637321532299 163.24905719234854 M62.12637321532299 163.24905719234854 C62.12637321532299 163.24905719234854, 62.12637321532299 163.24905719234854, 62.126373215323 163.24905719234852 M62.12637321532299 163.24905719234854 C62.12637321532299 163.24905719234854, 62.126373215323 163.24905719234852, 62.126373215323 163.24905719234852 M826.641068643506 163.24905719234852 C835.1856121584455 165.48563545280984, 843.1111429937126 168.96103385066303, 844.9540485310877 178.90815096281764 M826.641068643506 163.24905719234852 C833.526733235657 165.14115353268488, 841.8243766416273 166.86245233648145, 844.9540485310877 178.90815096281764 M844.9540485310877 178.90815096281764 C844.1472301016784 189.10864217866998, 834.8631034822513 194.09740448135832, 826.641068643506 194.58169740897114 M844.9540485310877 178.90815096281764 C845.0201893515641 184.32459341384325, 835.9451765311726 196.54554896152527, 826.641068643506 194.58169740897114 M826.641068643506 194.58169740897114 C817.2544170467569 191.8546345545719, 805.6338760901715 189.7499037264739, 808.3280887559243 178.90815096281764 M826.641068643506 194.58169740897114 C814.7357960428031 198.00015270358833, 809.9404472620233 186.94694018609678, 808.3280887559243 178.90815096281764 M808.3280887559243 178.90815096281764 C810.065539675188 169.15240007614406, 817.1693274989807 164.2514628403812, 826.641068643506 163.24905719234854 M808.3280887559243 178.90815096281764 C805.3654160846311 168.08656030379856, 819.8176766094368 165.8113736708175, 826.641068643506 163.24905719234854 M826.641068643506 163.24905719234854 C826.641068643506 163.24905719234854, 826.641068643506 163.24905719234852, 826.641068643506 163.24905719234852 M826.641068643506 163.24905719234854 C826.641068643506 163.24905719234854, 826.641068643506 163.24905719234854, 826.641068643506 163.24905719234852 M62.12637321532302 566.0907685448568 C70.75836814518243 566.7858639623612, 80.03341942100059 575.7582144837386, 80.43935310290465 581.7643149910103 M62.12637321532302 566.0907685448568 C71.46722394220687 568.3640421292853, 80.07171501155216 572.4246659985769, 80.43935310290465 581.7643149910103 M80.43935310290465 581.7643149910103 C81.3958875322083 588.8868265730371, 72.50363975176974 597.0371965513956, 62.12637321532303 597.4234087614794 M80.43935310290465 581.7643149910103 C79.11648548597675 587.2706529297442, 72.88570436216345 595.0780048665516, 62.12637321532303 597.4234087614794 M62.12637321532303 597.4234087614794 C53.24737719609144 596.8299958155882, 42.88919847693218 593.0085940641393, 43.8133933277414 581.7643149910103 M62.12637321532303 597.4234087614794 C54.44147954415272 600.7444390815608, 46.780090243154376 592.845041375658, 43.8133933277414 581.7643149910103 M43.8133933277414 581.7643149910103 C46.12014345581568 572.766850034476, 51.18490191547171 564.6576474275082, 62.12637321532303 566.0907685448568 M43.8133933277414 581.7643149910103 C44.32988352946862 576.1299453354466, 48.85817506725871 564.3259573376845, 62.12637321532303 566.0907685448568 M62.12637321532303 566.0907685448568 C62.12637321532303 566.0907685448568, 62.12637321532302 566.0907685448568, 62.12637321532302 566.0907685448568 M62.12637321532303 566.0907685448568 C62.12637321532303 566.0907685448568, 62.12637321532302 566.0907685448568, 62.12637321532302 566.0907685448568 M826.641068643506 566.0907685448568 C837.3889868290473 566.5173389877766, 842.5790666769481 573.8338925044543, 844.9540485310877 581.7643149910103 M826.641068643506 566.0907685448568 C839.4937180338271 567.1973249144029, 843.779730852669 569.8943187273132, 844.9540485310877 581.7643149910103 M844.9540485310877 581.7643149910103 C847.1339471645596 589.9003259819974, 835.648305104641 596.3154311822187, 826.641068643506 597.4234087614794 M844.9540485310877 581.7643149910103 C845.5446250472626 587.7324019395322, 839.4868512686489 597.7773140055053, 826.641068643506 597.4234087614794 M826.641068643506 597.4234087614794 C816.6763738706791 599.0654610143434, 805.5445030204772 592.3512017113198, 808.3280887559243 581.7643149910103 M826.641068643506 597.4234087614794 C813.2219725829166 598.5608994332068, 807.1524199728209 591.8104082920165, 808.3280887559243 581.7643149910103 M808.3280887559243 581.7643149910103 C810.1360732663895 574.8517224292762, 816.5749667434408 567.6139444972962, 826.641068643506 566.0907685448568 M808.3280887559243 581.7643149910103 C808.172813053523 572.4179871461379, 819.5391143779191 562.8844083986353, 826.641068643506 566.0907685448568 M826.641068643506 566.0907685448568 C826.641068643506 566.0907685448568, 826.641068643506 566.0907685448568, 826.641068643506 566.0907685448568 M826.641068643506 566.0907685448568 C826.641068643506 566.0907685448568, 826.641068643506 566.0907685448568, 826.641068643506 566.0907685448568" stroke="#000000" stroke-width="2" fill="none" vector-effect="non-scaling-stroke" data-shape-part="outline" stroke-opacity="1" fill-opacity="0.24"></path></g></g><g transform="translate(174.38686109683726, 328.882117525514) rotate(0)"><text transform="translate(0, 292)" style="font-size: 24px; font-family: &quot;Comic Sans MS&quot;; fill: rgb(17, 17, 17); opacity: 1; stroke-width: 0; font-style: normal; font-weight: normal; text-decoration: none;"></text></g></g><g transform="translate(525.0857506950268, 511.3228645336886) rotate(0)"><text transform="translate(0, 0)" style="font-size: 17px; font-family: Roboto; fill: rgb(17, 17, 17); opacity: 1; stroke-width: 0; font-style: normal; font-weight: bold; text-decoration: none;"><tspan dominant-baseline="text-before-edge" x="0" y="0">Site Name</tspan></text></g><g transform="translate(525.0857506950268, 549.6072575552713) rotate(0)"><text transform="translate(0, 0)" style="font-size: 17px; font-family: Roboto; fill: rgb(17, 17, 17); opacity: 1; stroke-width: 0; font-style: normal; font-weight: bold; text-decoration: none;"><tspan dominant-baseline="text-before-edge" x="0" y="0">Site Purpose</tspan></text></g><g transform="translate(525.0857506950268, 587.891650576854) rotate(0)"><text transform="translate(0, 0)" style="font-size: 17px; font-family: Roboto; fill: rgb(17, 17, 17); opacity: 1; stroke-width: 0; font-style: normal; font-weight: bold; text-decoration: none;"><tspan dominant-baseline="text-before-edge" x="0" y="0">Scenarios</tspan></text></g><g transform="translate(525.0857506950268, 626.8785095254383) rotate(0)"><text transform="translate(0, 0)" style="font-size: 17px; font-family: Roboto; fill: rgb(17, 17, 17); opacity: 1; stroke-width: 0; font-style: normal; font-weight: bold; text-decoration: none;"><tspan dominant-baseline="text-before-edge" x="0" y="0">Color Schema</tspan></text></g><g transform="translate(525.0857506950268, 666.2166014375232) rotate(0)"><text transform="translate(0, 0)" style="font-size: 17px; font-family: Roboto; fill: rgb(17, 17, 17); opacity: 1; stroke-width: 0; font-style: normal; font-weight: bold; text-decoration: none;"><tspan dominant-baseline="text-before-edge" x="0" y="0">Typography</tspan></text></g><g transform="translate(525.0857506950268, 706.9596252036113) rotate(0)"><text transform="translate(0, 0)" style="font-size: 17px; font-family: Roboto; fill: rgb(17, 17, 17); opacity: 1; stroke-width: 0; font-style: normal; font-weight: bold; text-decoration: none;"><tspan dominant-baseline="text-before-edge" x="0" y="0">Wireframe</tspan></text></g><g><g transform="translate(993.2792910415384, 1016.3958660477798) rotate(0) scale(0.3565593004763101 0.43906889066917393)  "><g><path fill="#616161" stroke="#000000" stroke-width="2" stroke-linecap="round" stroke-linejoin="round" stroke-miterlimit="10" d="  M95.35,0H4.65C2.09,0,0,2.09,0,4.65v90.7C0,97.91,2.09,100,4.65,100h46.24l0.3-38.79H38.06l0.12-15.42h13.19l0.01-1.16  c0.02-3.11-0.01-6.22,0.1-9.33c0.05-1.95,0.15-3.96,0.5-5.91c0.89-4.72,3.08-8.68,7.03-11.52c3.46-2.47,7.4-3.5,11.58-3.6  c0.43-0.01,0.85-0.01,1.28-0.01c2.29,0,4.6,0.12,6.89,0.23c1.49,0.06,2.98,0.27,4.38,0.43l-0.11,13.8c-0.43,0-0.76,0-1.1,0  c-1.51,0-3.03-0.02-4.54-0.02c-1.14,0-2.27,0.01-3.41,0.05c-3.66,0.12-6.35,1.49-6.54,6.06c-0.12,3.29-0.2,10.56-0.2,10.94  c0.19,0,3.81,0.01,7.44,0.01c1.82,0,3.6,0,4.84-0.01c0.94,0,1.89,0,2.96,0c-0.74,5.3-1.42,10.39-2.16,15.51H67.25L66.95,100h28.4  c2.56,0,4.65-2.09,4.65-4.65V4.65C100,2.09,97.91,0,95.35,0z" vector-effect="non-scaling-stroke" stroke-opacity="1" fill-opacity="0.24" transform="scale(1 1)" data-target_data=""></path></g></g></g><g><g transform="translate(1053.3401278001681, 1016.3958660477798) rotate(0) scale(0.4744301436089742 0.41735584061842074)  "><g><polygon fill="#616161" stroke="#000000" stroke-width="2" stroke-linecap="round" stroke-linejoin="round" stroke-miterlimit="10" points="  23.09,100 3.88,100 3.88,32.92 23.09,32.92 23.09,100 " vector-effect="non-scaling-stroke" stroke-opacity="1" fill-opacity="0.24" transform="scale(1 1)" data-target_data=""></polygon></g><g><ellipse fill="#616161" stroke="#000000" stroke-width="2" stroke-linecap="round" stroke-linejoin="round" stroke-miterlimit="10" cx="13.67" cy="11.53" rx="11.69" ry="11.53" vector-effect="non-scaling-stroke" stroke-opacity="1" fill-opacity="0.24" transform="scale(1 1)" data-target_data=""></ellipse></g><g><path fill="#616161" stroke="#000000" stroke-width="2" stroke-linecap="round" stroke-linejoin="round" stroke-miterlimit="10" d="  M98.01,100H78.33V60.22c0-0.08,0.29-6.4-3.29-10.17c-1.78-1.88-4.24-2.83-7.3-2.83c-7.7,0-11.59,5.54-13.24,8.9V100H35.28V32.92  H54.5v5.67c6.29-5.1,13.35-7.8,20.47-7.8c18.23,0,23.04,14.24,23.04,21.76L98.01,100L98.01,100z" vector-effect="non-scaling-stroke" stroke-opacity="1" fill-opacity="0.24" transform="scale(1 1)" data-target_data=""></path></g></g></g><g transform="translate(394.77832123624535, 1012.8835364127722) rotate(0)"><text transform="translate(0, 0)" style="font-size: 24px; font-family: Roboto; fill: rgb(17, 17, 17); opacity: 1; stroke-width: 0; font-style: normal; font-weight: bold; text-decoration: none;"><tspan dominant-baseline="text-before-edge" x="0" y="0">©2024 James Phillip De Guzman </tspan></text></g><g transform="translate(432.71148129432726, 1042.7383383103368) rotate(0)"><text transform="translate(0, 0)" style="font-size: 17px; font-family: Roboto; fill: rgb(17, 17, 17); opacity: 1; stroke-width: 0; font-style: normal; font-weight: normal; text-decoration: none;"><tspan dominant-baseline="text-before-edge" x="0" y="0">Last Modified: dd/mm/yyyy hh:mm:ss</tspan></text></g><defs><style>@import url("https://www.dafontfree.net/embed/Y29taWMtc2Fucy1tcy1yZWd1bGFyJmRhdGEvNDAvYy8xMDA5MzQvQ09NSUMuVFRG");
@import url("https://fonts.googleapis.com/css2?family=Roboto&amp;display=swap");
@import url("https://fonts.googleapis.com/css2?family=Roboto:wght@700&amp;display=swap");text {white-space: pre;};
</style></defs></svg>