<svg width="915" height="1053" viewBox="119 27 915 1053" xmlns="http://www.w3.org/2000/svg" xmlns:xlink="http://www.w3.org/1999/xlink"><g><g transform="translate(454.45900545225714, 312.1050370197661)  rotate(0)  "><g><path d="M0 30.87198099215666 C-0.7464997109215682 66.48413593638183, 1.3248205546099716 105.39812420567267, 0 149.21787673999063 M0 30.87198099215666 C0.5167279750652034 69.11264352526504, 3.008242076689692 104.43559130937618, 0 149.21787673999063 M0 149.21787673999063 C65.74863241438416 151.6210808641986, 133.5431629248622 153.0864606668617, 243.81841572545605 149.21787673999063 M0 149.21787673999063 C50.38180013582181 148.79749601845188, 98.56375051835136 148.93003763264954, 243.81841572545605 149.21787673999063 M243.81841572545605 149.21787673999063 C244.45978312985628 118.33526524638498, 246.44562175171106 81.71414862121429, 243.81841572545605 30.87198099215665 M243.81841572545605 149.21787673999063 C241.6773579094627 106.10940748326496, 240.84004606046463 63.800757036149136, 243.81841572545605 30.87198099215665 M243.81841572545605 30.87198099215665 C192.48189936386945 29.95539689403844, 141.5175066436546 30.453578406073337, 0 30.87198099215665 M243.81841572545605 30.87198099215665 C150.6543768963145 32.81502912485899, 57.347883445093274 33.13579361620622, 0 30.87198099215665 M0 30.87198099215665 C3.750494417635428e-16 30.871980992156654, 3.4738435573646017e-16 30.871980992156654, 0 30.87198099215666 M0 30.87198099215665 C2.4868352691469133e-16 30.871980992156654, 2.520336560411345e-16 30.871980992156658, 0 30.87198099215666 M17.04339489604083 38.65310341677684 C17.959492912520208 40.004691154179945, 20.777780821808733 40.18697836775141, 22.06727335206385 42.360766917765915 M17.04339489604083 38.65310341677684 C17.177647108449154 40.42588284033894, 18.72166340288811 40.143049650441796, 22.06727335206385 42.360766917765915 M22.06727335206385 42.360766917765915 C21.04381565872562 42.568971933083766, 21.189423269524948 46.453754964854944, 17.043394896040827 46.071852434033275 M22.06727335206385 42.360766917765915 C25.50412280184199 42.955077303372484, 18.68175247607544 46.57688436374292, 17.043394896040827 46.071852434033275 M17.043394896040827 46.071852434033275 C12.153023642233176 43.51576111057066, 11.105481686382115 43.55421248193288, 12.019516440017805 42.360766917765915 M17.043394896040827 46.071852434033275 C11.873834715202985 48.487064436229325, 11.18831455575724 42.97965008857118, 12.019516440017805 42.360766917765915 M12.019516440017805 42.360766917765915 C10.470431623396657 41.47054761428194, 15.146770832734013 40.32770574134388, 17.043394896040827 38.653103416776844 M12.019516440017805 42.360766917765915 C15.41335932763592 43.43375894780079, 14.021051121037285 40.31150242853523, 17.043394896040827 38.653103416776844 M17.043394896040827 38.653103416776844 C17.043394896040827 38.653103416776844, 17.04339489604083 38.65310341677684, 17.04339489604083 38.65310341677684 M17.043394896040827 38.653103416776844 C17.043394896040827 38.653103416776844, 17.04339489604083 38.65310341677684, 17.04339489604083 38.65310341677684 M226.7759961030781 38.65310341677684 C227.3816463968841 36.38266998570956, 231.9265587950032 42.45565753955202, 231.79987455910117 42.360766917765915 M226.7759961030781 38.65310341677684 C226.2343956010075 39.53950222599864, 228.8756297890469 38.66161102409283, 231.79987455910117 42.360766917765915 M231.79987455910117 42.360766917765915 C231.71212774294304 42.26872429366612, 227.6682221472604 44.16151723602079, 226.7759961030781 46.071852434033275 M231.79987455910117 42.360766917765915 C232.23820417251312 42.70405607166157, 227.76847776573763 43.70047675088272, 226.7759961030781 46.071852434033275 M226.7759961030781 46.071852434033275 C223.30138104505411 43.483087781455744, 221.66381318740858 44.38123363371396, 221.7521176470551 42.360766917765915 M226.7759961030781 46.071852434033275 C225.21515619054944 47.62313598558531, 221.83067472548535 46.35453813763724, 221.7521176470551 42.360766917765915 M221.7521176470551 42.360766917765915 C220.39522106357109 42.58874937671976, 225.5966466758015 37.89166155499019, 226.7759961030781 38.653103416776844 M221.7521176470551 42.360766917765915 C222.51370313422012 38.33678167666117, 220.86379714739383 41.412075787965065, 226.7759961030781 38.653103416776844 M226.7759961030781 38.653103416776844 C226.7759961030781 38.653103416776844, 226.7759961030781 38.653103416776844, 226.7759961030781 38.65310341677684 M226.7759961030781 38.653103416776844 C226.7759961030781 38.653103416776844, 226.7759961030781 38.65310341677684, 226.7759961030781 38.65310341677684 M17.043394896040834 134.03547558664002 C20.80968926002064 134.2760180300769, 23.121320382989772 133.0857526151928, 22.067273352063857 137.74656110290738 M17.043394896040834 134.03547558664002 C18.675920124331277 135.90606916884116, 20.319839671971106 132.91035103313615, 22.067273352063857 137.74656110290738 M22.067273352063857 137.74656110290738 C20.236584266909528 139.57076780222928, 19.44560345076446 142.84860746025873, 17.043394896040837 141.45422460389645 M22.067273352063857 137.74656110290738 C22.104649398598017 137.4427395373547, 19.793229689313588 143.81476846522486, 17.043394896040837 141.45422460389645 M17.043394896040837 141.45422460389645 C16.52423134227267 142.52608639955355, 13.641419318852217 141.70028592371023, 12.019516440017814 137.74656110290738 M17.043394896040837 141.45422460389645 C16.10842898963003 142.23072198665534, 10.005844309947655 136.85903109162686, 12.019516440017814 137.74656110290738 M12.019516440017814 137.74656110290738 C14.963508459119627 137.65079502151337, 16.43714596026259 134.3468105560836, 17.043394896040837 134.03547558664002 M12.019516440017814 137.74656110290738 C10.040148589186872 138.8465134974568, 13.463698225632854 132.0512122441285, 17.043394896040837 134.03547558664002 M17.043394896040837 134.03547558664002 C17.043394896040837 134.03547558664002, 17.043394896040834 134.03547558664002, 17.043394896040834 134.03547558664002 M17.043394896040837 134.03547558664002 C17.043394896040837 134.03547558664002, 17.043394896040837 134.03547558664002, 17.043394896040834 134.03547558664002 M226.7759961030781 134.03547558664002 C228.13279603723117 135.5703958636817, 229.76632752793716 137.83278147266236, 231.79987455910117 137.74656110290738 M226.7759961030781 134.03547558664002 C232.81299708139764 134.65499882290294, 228.43577209588017 133.6915206488221, 231.79987455910117 137.74656110290738 M231.79987455910117 137.74656110290738 C229.3939844095986 142.04019064926183, 228.68845376587785 142.08330340146853, 226.7759961030781 141.45422460389645 M231.79987455910117 137.74656110290738 C231.84619546424594 141.42000953107714, 230.7256978721948 143.9935594264308, 226.7759961030781 141.45422460389645 M226.7759961030781 141.45422460389645 C224.96856156919026 140.39760504126383, 223.45037452288162 137.38407472991025, 221.7521176470551 137.74656110290738 M226.7759961030781 141.45422460389645 C221.435913890422 140.16150321847593, 220.87928672836352 137.50514554679035, 221.7521176470551 137.74656110290738 M221.7521176470551 137.74656110290738 C219.2099054890157 135.0889602391514, 223.84296777195803 132.37861800852386, 226.7759961030781 134.03547558664002 M221.7521176470551 137.74656110290738 C223.65691705168535 137.78410186581303, 227.22442835614592 131.862477341687, 226.7759961030781 134.03547558664002 M226.7759961030781 134.03547558664002 C226.7759961030781 134.03547558664002, 226.7759961030781 134.03547558664002, 226.7759961030781 134.03547558664002 M226.7759961030781 134.03547558664002 C226.7759961030781 134.03547558664002, 226.7759961030781 134.03547558664002, 226.7759961030781 134.03547558664002" stroke="#000000" stroke-width="2" fill="none" vector-effect="non-scaling-stroke" data-shape-part="outline" stroke-opacity="1" fill-opacity="0.24"></path></g></g><g transform="translate(466.64992623852993, 330.1156437475863) rotate(0)"><text transform="translate(0, 60)" style="font-size: 24px; font-family: &quot;Comic Sans MS&quot;; fill: rgb(17, 17, 17); opacity: 1; stroke-width: 0; font-style: normal; font-weight: normal; text-decoration: none;"></text></g></g><g><g transform="translate(129.52064358438392, 307.42660510805587)  rotate(0)  "><g><path d="M-1.0449401205405593 1.6954413866624236 L893.5305294632399 -1.1034885132685304 L894.3853298961603 692.4018245112674 L0.4161591762676835 693.8532131385581" stroke="none" stroke-width="0" fill="#616161" vector-effect="non-scaling-stroke" data-shape-part="fill" stroke-opacity="0.03" fill-opacity="0.03"></path><path d="M0 0 C278.3084166946544 -0.6218395178697605, 555.3212682524143 -1.127003008642008, 892.8793538813898 0 M0 0 C216.71697987508384 -3.154026163815338, 432.80774922881983 -3.112912065981705, 892.8793538813898 0 M892.8793538813898 0 C889.7368686466269 263.45246284996153, 888.9651924996429 524.5568385824746, 892.8793538813898 693.4336155212076 M892.8793538813898 0 C891.4611590741682 149.45351718850145, 891.1734016238261 300.2579000526981, 892.8793538813898 693.4336155212076 M892.8793538813898 693.4336155212076 C633.3921781716605 689.6225538861216, 373.92478196862936 689.3491034995974, 0 693.4336155212076 M892.8793538813898 693.4336155212076 C680.6107559523664 697.6260506767345, 469.4557420304796 697.7082479197097, 0 693.4336155212076 M0 693.4336155212076 C3.7473294229409126 532.3502357785417, 4.4862619490525155 371.8071012615288, 0 0 M0 693.4336155212076 C3.6643121667814866 529.5795900766198, 3.802298963875832 366.75250053296577, 0 0" stroke="#000000" stroke-width="2" fill="none" vector-effect="non-scaling-stroke" data-shape-part="outline" stroke-opacity="1" fill-opacity="0.03"></path></g></g><g transform="translate(174.1646112784534, 342.09828588411625) rotate(0)"><text transform="translate(0, 300)" style="font-size: 24px; font-family: &quot;Comic Sans MS&quot;; fill: rgb(17, 17, 17); opacity: 1; stroke-width: 0; font-style: normal; font-weight: normal; text-decoration: none;"></text></g></g><g><g transform="translate(129.52064358438392, 36.64404916135955)  rotate(0)  "><g><path d="M1.8302493821829557 -2.0320726465433836 L888.1993957119628 -1.0556632708758116 L890.4563685613318 256.0673395775277 L1.016756309196353 258.63039217218943" stroke="none" stroke-width="0" fill="#616161" vector-effect="non-scaling-stroke" data-shape-part="fill" stroke-opacity="0.1" fill-opacity="0.1"></path><path d="M0 0 C281.5729024742405 3.4976026926577743, 563.5544798971434 3.636185136848754, 890.3781170076325 0 M0 0 C233.0156601969812 3.0868087612490847, 467.43695239847676 3.2035692893367007, 890.3781170076325 0 M890.3781170076325 0 C895.6206800925803 87.72108642879793, 892.6233002262081 174.51717248976138, 890.3781170076325 258.78659095503576 M890.3781170076325 0 C891.6189231492888 104.109159326378, 890.9571632996445 204.89954488675485, 890.3781170076325 258.78659095503576 M890.3781170076325 258.78659095503576 C595.3642737777764 261.00940910955313, 300.0827329208229 261.130024329623, 0 258.78659095503576 M890.3781170076325 258.78659095503576 C658.6723224314911 262.1758306113347, 427.9853709432762 261.1802734819516, 0 258.78659095503576 M0 258.78659095503576 C1.0324468066880295 191.8649922313971, 2.7618717720302683 130.41971436787654, 0 0 M0 258.78659095503576 C-3.1313001150110025 179.53268924920428, -2.24361115094122 103.08857527897004, 0 0" stroke="#000000" stroke-width="2" fill="none" vector-effect="non-scaling-stroke" data-shape-part="outline" stroke-opacity="1" fill-opacity="0.1"></path></g></g><g transform="translate(174.03954943476555, 49.58337870911134) rotate(0)"><text transform="translate(0, 104)" style="font-size: 24px; font-family: &quot;Comic Sans MS&quot;; fill: rgb(17, 17, 17); opacity: 1; stroke-width: 0; font-style: normal; font-weight: normal; text-decoration: none;"></text></g></g><g><g transform="translate(551.5673434142711, 54.917090231923)  rotate(0)  "><g><path d="M11.013122748359551 5.1413794670825546 C15.322214409697526 1.8879127792295325, 22.564522636663806 -1.192534799635381, 27.874434096866626 -0.765909829454607 C33.18434555706945 -0.33928485927383295, 39.4291289012909 3.7541120701969, 42.872591509576466 7.701129288167198 C46.31605411786203 11.648146506137497, 48.19989314273405 17.935578077992147, 48.53520974658002 22.916193478367184 C48.870526350426 27.89680887874222, 47.94266513088469 33.607744800308076, 44.884491132652315 37.58482169041743 C41.82631713441994 41.56189858052678, 35.46506213451801 45.1911203836358, 30.186165757185744 46.7786548190233 C24.907269379853485 48.366189254410806, 17.825243621125967 49.1705960584589, 13.211112868658756 47.11002830274245 C8.596982116191544 45.049460547026, 4.525551687274509 39.43146875358486, 2.5013812423824717 34.41524828472463 C0.4772107974904336 29.399027815864407, -2.3050465511474694 22.94410114315533, 1.066090199306526 17.012705489581084 C4.437226949760522 11.081309836006838, 17.289344683699145 1.2464676953273934, 22.728201745106443 -1.1731256367208438 C28.16705880651374 -3.592718968769081, 33.74267080135183 1.9100133093721752, 33.699232567750315 2.4951454972916594 M17.125530871918592 0.519432798926502 C21.224831047980654 -0.6059848922243722, 28.530045893006445 2.3307370233505673, 33.46567806330738 4.968684536362581 C38.401310233608314 7.6066320493745945, 44.645916857171194 11.973999004610281, 46.7393238937242 16.34711787699858 C48.8327309302772 20.72023674938688, 47.61621112322487 26.34021465870559, 46.026120282625385 31.20739777069238 C44.4360294420259 36.07458088267917, 41.01762359904373 42.929519044098754, 37.198778850127276 45.55021654891932 C33.37993410121082 48.17091405373989, 27.909220087193216 47.553138209235804, 23.11305178912668 46.93158279961582 C18.316883491060143 46.31002738999583, 12.515545954525098 45.166517555958315, 8.42176906172806 41.82088409119939 C4.327992168931023 38.47525062644046, -0.6289518795951151 31.88806974363369, -1.4496095676555463 26.857782011062255 C-2.2702672557159773 21.82749427849082, -0.23945516932123212 16.22828088835363, 3.497822933365473 11.639157695770793 C7.235101036052178 7.0500345031879545, 18.367074139408942 1.025075278542542, 20.974059048464685 -0.6769571444347768 C23.58104395752043 -2.3789895674120958, 19.39536203160753 0.8537024900279301, 19.139732387699926 1.4269631579068793" stroke="none" stroke-width="0" fill="#616161" vector-effect="non-scaling-stroke" data-shape-part="fill" stroke-opacity="0.26" fill-opacity="0.26"></path><path d="M37.624177136313065 5.402378169673721 C41.76291750766953 8.015567570505558, 44.87422474140634 13.281620309204126, 46.308865955113205 18.13699187962719 C47.743507168820074 22.992363450050252, 48.279399552553805 29.81839303174392, 46.23202441855427 34.5346075922121 C44.18464928455473 39.25082215268028, 38.88709912819105 44.43242055601482, 34.02461515111599 46.43427924243626 C29.162131174040923 48.436137928857704, 22.188771787365138 47.823313685316485, 17.057120556103882 46.54575971074077 C11.925469324842627 45.26820573616505, 6.295969470574612 42.81333057945212, 3.234707763548464 38.768955394981944 C0.17344605652231548 34.72458021051177, -1.7820364330991498 27.708627737065676, -1.3104496860530084 22.279508603919727 C-0.8388629390068669 16.850389470773777, 2.211893948008933 10.11372566526978, 6.064228245825312 6.194240596106244 C9.91656254364169 2.274755526942709, 15.06603090317125 -2.0023271918470575, 21.803556100845267 -1.2374018110614848 C28.541081298519284 -0.47247643027591213, 41.94474308362829 6.640328910963188, 46.489379431869416 10.78379288081968 C51.03401578011054 14.927256850676173, 49.85462345339254 23.1922681116544, 49.07137419029205 23.62338200807747 M24.132797509397065 -0.5640684322231841 C28.88744017868007 -1.1158634250203843, 34.344465286455296 -0.05619429634578266, 38.01636619187036 3.352686212368834 C41.688267097285426 6.761566721083451, 44.92412916882293 14.199856099181563, 46.16420294188747 19.889214620064514 C47.404276714952005 25.578573140947466, 47.6552647637329 32.75193572671925, 45.45680883025758 37.488837337666546 C43.258352896782256 42.22573894861384, 37.70914915113855 46.340718601344236, 32.97346734103553 48.310624285748275 C28.237785530932513 50.280529970152315, 21.940834954977312 51.08415362107252, 17.042717969639465 49.308271444090785 C12.144600984301618 47.53238926710905, 6.507891264885764 42.228812787934686, 3.5847654290084527 37.65533122385788 C0.6616395931311416 33.08184965978107, -1.2042409880797629 26.80171218208706, -0.49603704562440143 21.867382059629946 C0.21216689683096013 16.933051937172834, 3.5869589680382825 11.976011410243068, 7.833989083740622 8.04935048911521 C12.081019199442963 4.122689567987351, 22.186746176459206 -0.09266992090497084, 24.98614364858964 -1.6925834671372009 C27.785541120720072 -3.292497013369431, 25.027146636002847 -2.18684650157036, 24.63037391652322 -1.550130788278171" stroke="#000000" stroke-width="2" fill="none" vector-effect="non-scaling-stroke" data-shape-part="outline" stroke-opacity="1" fill-opacity="0.26"></path></g></g><g transform="translate(558.8628044035917, 62.212551221243515) rotate(0)"><text transform="translate(0, 5)" style="font-size: 24px; font-family: &quot;Comic Sans MS&quot;; fill: rgb(17, 17, 17); opacity: 1; stroke-width: 0; font-style: normal; font-weight: normal; text-decoration: none;"></text></g></g><g><g id="YsMAWQFmoLKX-LghP4msS" pointer-events="auto"><g><path data-shape-part="outline" class="" d="M589.537 59.111 C583.5802079660317 68.21406199082705, 577.6234159320634 77.31712398165408, 574.279 82.428 M589.537 59.111 C585.221435658289 65.70596747645018, 580.9058713165779 72.30093495290038, 574.279 82.428 M574.279 82.428 C569.4718695233842 88.9970270154586, 564.6647390467683 95.56605403091721, 562.004 99.202 M574.279 82.428 C569.9469038976575 88.3478843194047, 565.6148077953151 94.2677686388094, 562.004 99.202" stroke="#000000" stroke-width="2" stroke-opacity="1" fill="none" stroke-linecap="round" stroke-dashoffset="-3"></path></g><path d="M589.537,59.111L574.279,82.428L562.004,99.202" fill="none" fill-opacity="0" stroke="black" stroke-opacity="0" stroke-width="10" id="hit-YsMAWQFmoLKX-LghP4msS"></path></g></g><g><g id="goD4byx0SyxOr1L_O7lOQ" pointer-events="auto"><g><path data-shape-part="outline" class="" d="M560.348 60.528 C567.8307894482929 69.08403058964946, 575.3135788965859 77.64006117929891, 579.619 82.563 M560.348 60.528 C568.0279804149967 69.30950425221585, 575.7079608299933 78.0910085044317, 579.619 82.563 M579.619 82.563 C584.2658655797298 87.70663038447388, 588.9127311594598 92.85026076894775, 592.584 96.914 M579.619 82.563 C583.8115374453309 87.20373311823718, 588.004074890662 91.84446623647437, 592.584 96.914" stroke="#000000" stroke-width="2" stroke-opacity="1" fill="none" stroke-linecap="round" stroke-dashoffset="-3"></path></g><path d="M560.348,60.528L579.619,82.563L592.584,96.914" fill="none" fill-opacity="0" stroke="black" stroke-opacity="0" stroke-width="10" id="hit-goD4byx0SyxOr1L_O7lOQ"></path></g></g><g><g transform="translate(129.09533159241028, 1014.7204477602459)  rotate(0)  "><g><path d="M-0.621089399792254 1.393582628108561 L891.2074716675417 0.9167878786101937 L891.8481186318533 66.93991949249252 L-0.7811492392793298 62.49858807612404" stroke="none" stroke-width="0" fill="#616161" vector-effect="non-scaling-stroke" data-shape-part="fill" stroke-opacity="0.1" fill-opacity="0.1"></path><path d="M0 0 C233.18262611242503 1.724846325383695, 464.1490637281263 2.096215508447202, 893.5804302391917 0 M0 0 C283.1829450044266 -2.867548447540238, 566.8060342022119 -3.2915891525058294, 893.5804302391917 0 M893.5804302391917 0 C893.9677982958927 17.81146850543886, 895.608171972908 27.534540045351672, 893.5804302391917 65.35351732865169 M893.5804302391917 0 C894.2935271666651 18.372507896643857, 894.1623511866932 37.295262351905514, 893.5804302391917 65.35351732865169 M893.5804302391917 65.35351732865169 C544.413984488869 71.36026750632998, 195.87824295632285 70.72170703241106, 0 65.35351732865169 M893.5804302391917 65.35351732865169 C665.4436715044661 68.850021378725, 438.26059352363467 69.30208197686, 0 65.35351732865169 M0 65.35351732865169 C-0.0067996377047196965 47.77391986674327, -2.3836855584677354 34.768876491497686, 0 0 M0 65.35351732865169 C0.2627107445655099 42.7959285812824, -0.6736629511656531 22.672385200390337, 0 0" stroke="#000000" stroke-width="2" fill="none" vector-effect="non-scaling-stroke" data-shape-part="outline" stroke-opacity="1" fill-opacity="0.1"></path></g></g><g transform="translate(173.77435310436985, 1017.9881236266784) rotate(0)"><text transform="translate(0, 17)" style="font-size: 24px; font-family: &quot;Comic Sans MS&quot;; fill: rgb(17, 17, 17); opacity: 1; stroke-width: 0; font-style: normal; font-weight: normal; text-decoration: none;"></text></g></g><g transform="translate(550.0665659116206, 121.32104064402333) rotate(0)"><text transform="translate(0, 0)" style="font-size: 18px; font-family: Roboto; fill: rgb(17, 17, 17); opacity: 1; stroke-width: 0; font-style: normal; font-weight: normal; text-decoration: none;"><tspan dominant-baseline="text-before-edge" x="0" y="0">Home</tspan></text></g><g transform="translate(550.9171898955678, 154.49537601796854) rotate(0)"><text transform="translate(0, 0)" style="font-size: 18px; font-family: Roboto; fill: rgb(17, 17, 17); opacity: 1; stroke-width: 0; font-style: normal; font-weight: normal; text-decoration: none;"><tspan dominant-baseline="text-before-edge" x="0" y="0">About</tspan></text></g><g transform="translate(543.0665659116206, 188.09502338388737) rotate(0)"><text transform="translate(0, 0)" style="font-size: 18px; font-family: Roboto; fill: rgb(17, 17, 17); opacity: 1; stroke-width: 0; font-style: normal; font-weight: normal; text-decoration: none;"><tspan dominant-baseline="text-before-edge" x="0" y="0">Contact</tspan></text></g><g transform="translate(541.2097020882002, 221.6946707498062) rotate(0)"><text transform="translate(0, 0)" style="font-size: 18px; font-family: Roboto; fill: rgb(17, 17, 17); opacity: 1; stroke-width: 0; font-style: normal; font-weight: normal; text-decoration: none;"><tspan dominant-baseline="text-before-edge" x="0" y="0">Portfolio</tspan></text></g><g><g transform="translate(131.22189155227855, 509.8751132875161)  rotate(0)  "><g><path d="M1.1952215423807502 -1.4609277388080955 L890.2398968497353 -2.260749145410955 L892.0607787231045 306.6877843947707 L-0.17608669493347406 309.2787730009852" stroke="none" stroke-width="0" fill="#616161" vector-effect="non-scaling-stroke" data-shape-part="fill" stroke-opacity="0.1" fill-opacity="0.1"></path><path d="M0 0 C264.061719942763 -2.806014005712394, 530.6000290463111 -1.7546162887133396, 892.682776855311 0 M0 0 C237.99879032156406 -1.7523338702590963, 475.8145535904351 -1.342847582426836, 892.682776855311 0 M892.682776855311 0 C895.5343401895981 86.84367767054226, 896.6658427332352 176.71543269779102, 892.682776855311 307.15962413471175 M892.682776855311 0 C895.4067686208795 103.65853557626885, 895.955837128639 208.25123825775992, 892.682776855311 307.15962413471175 M892.682776855311 307.15962413471175 C543.5572948224441 310.52974201837566, 192.87134843683535 311.45670812526726, 0 307.15962413471175 M892.682776855311 307.15962413471175 C613.8974026787313 311.7466109207381, 335.7801043857264 311.63671511323344, 0 307.15962413471175 M0 307.15962413471175 C1.26885600555654 198.3894452436122, 1.2911621862748972 88.14144928392726, 0 0 M0 307.15962413471175 C-0.6085520866308141 223.78622064913955, -1.4733815152039376 141.9995697373991, 0 0" stroke="#000000" stroke-width="2" fill="none" vector-effect="non-scaling-stroke" data-shape-part="outline" stroke-opacity="1" fill-opacity="0.1"></path></g></g><g transform="translate(175.85603039504412, 525.2330944942516) rotate(0)"><text transform="translate(0, 126)" style="font-size: 24px; font-family: &quot;Comic Sans MS&quot;; fill: rgb(17, 17, 17); opacity: 1; stroke-width: 0; font-style: normal; font-weight: normal; text-decoration: none;"></text></g></g><g><g id="rZd8speQvYcGABUucIJWU" pointer-events="auto"><g><path data-shape-part="outline" class="" d="M131.222 509.875 C338.7121082858067 580.8232320747227, 546.2022165716135 651.7714641494454, 1023.905 815.115 M131.222 509.875 C383.7823348615963 596.2343421328217, 636.3426697231927 682.5936842656433, 1023.905 815.115" stroke="#000000" stroke-width="2" stroke-opacity="1" fill="none" stroke-linecap="round" stroke-dashoffset="-3"></path></g><path d="M131.222,509.875L1023.905,815.115" fill="none" fill-opacity="0" stroke="black" stroke-opacity="0" stroke-width="10" id="hit-rZd8speQvYcGABUucIJWU"></path></g></g><g><g id="m7aOyIIG1grsatWEEzATz" pointer-events="auto"><g><path data-shape-part="outline" class="" d="M1023.905 511.795 C762.8378977862133 601.0631078050509, 501.77079557242644 690.3312156101018, 131.222 817.035 M1023.905 511.795 C789.9672697314755 591.7866126857623, 556.0295394629511 671.7782253715247, 131.222 817.035" stroke="#000000" stroke-width="2" stroke-opacity="1" fill="none" stroke-linecap="round" stroke-dashoffset="-3"></path></g><path d="M1023.905,511.795L131.222,817.035" fill="none" fill-opacity="0" stroke="black" stroke-opacity="0" stroke-width="10" id="hit-m7aOyIIG1grsatWEEzATz"></path></g></g><g><g transform="translate(464.6664932596249, 880.7471702885442)  rotate(0)  "><g><path d="M189.49713207139834 62.37079462109886 C141.32663152529503 59.13069264416082, 101.75635419020449 65.62628321771008, 33.44067036554088 62.37079462109886 C13.329458111464398 66.87364635820322, -2.0437982356175777 51.03715921841048, 0 47.37300816203373 C-1.2636292613659483 34.375729965924535, -0.6471495963249786 29.071165641972385, 0 14.99778645906513 C2.0150384610518812 3.0705573419421843, 12.754180065854804 0.8563121164217591, 33.44067036554088 0 C79.47149515004499 1.2157124533102937, 121.6355045081622 2.922240717594428, 189.49713207139834 0 C205.2612029750416 -2.562978499568999, 227.0026497417975 3.393256720000499, 222.93780243693925 14.99778645906513 C219.9637375614476 23.485990369253845, 220.7770618996453 36.163652396890356, 222.93780243693925 47.37300816203373 C221.4906004821796 53.33623251109802, 208.1094634116212 63.38735025468103, 189.49713207139834 62.37079462109886 C189.49713207139834 62.37079462109886, 189.49713207139834 62.37079462109886, 189.49713207139834 62.37079462109886" stroke="none" stroke-width="0" fill="#616161" vector-effect="non-scaling-stroke" data-shape-part="fill" stroke-opacity="0.1" fill-opacity="0.1"></path><path d="M189.49713207139834 62.37079462109886 C142.6159226578764 61.018111459077105, 92.47821986871787 65.15837599998783, 33.44067036554088 62.37079462109886 M189.49713207139834 62.37079462109886 C149.42056448698634 62.33783698445781, 108.18766527447895 60.69143723315223, 33.44067036554088 62.37079462109886 M33.44067036554088 62.37079462109886 C17.437388655110613 59.9889187047147, 2.4676402201876044 53.08285939037286, 0 47.37300816203373 M33.44067036554088 62.37079462109886 C14.181261597001345 64.8796967122127, -1.5871598433237522 52.528993633673046, 0 47.37300816203373 M0 47.37300816203373 C-2.5981191292487353 37.857104359984085, -1.4248932793818683 24.215544967377877, 0 14.99778645906513 M0 47.37300816203373 C-1.7921188769508425 38.31667185914874, -0.24355395116100953 29.582663728422197, 0 14.99778645906513 M0 14.99778645906513 C2.93695795442909 8.64642215318381, 15.324483510419146 -0.4261153182014823, 33.44067036554088 0 M0 14.99778645906513 C-1.1644036393146964 7.220930546879389, 11.619155589663775 2.6898218992631877, 33.44067036554088 0 M33.44067036554088 0 C94.34439543689192 -2.8315717644241936, 156.14649496049861 -0.10127083130155867, 189.49713207139834 0 M33.44067036554088 0 C75.89498326573607 -2.096151609778496, 120.41138566920834 -0.3440423355103457, 189.49713207139834 0 M189.49713207139834 0 C206.1908341691414 -0.3356081089004874, 222.79877770151086 3.8860000426262546, 222.93780243693925 14.99778645906513 M189.49713207139834 0 C205.52105636289846 -1.0800932612735776, 222.1559875000648 3.860186040758707, 222.93780243693925 14.99778645906513 M222.93780243693925 14.99778645906513 C223.2085767551074 27.423577755214826, 220.21904282409048 38.03962982023255, 222.93780243693925 47.37300816203373 M222.93780243693925 14.99778645906513 C222.26800097820524 21.818774205833293, 223.54792443213228 30.09930320588135, 222.93780243693925 47.37300816203373 M222.93780243693925 47.37300816203373 C223.04071277584023 55.206759803886044, 207.9324135825554 63.81505141946308, 189.49713207139834 62.37079462109886 M222.93780243693925 47.37300816203373 C224.9157033522062 55.57687156526789, 206.19724724581968 64.70081084998145, 189.49713207139834 62.37079462109886 M189.49713207139834 62.37079462109886 C189.49713207139834 62.37079462109886, 189.49713207139834 62.37079462109886, 189.49713207139834 62.37079462109886 M189.49713207139834 62.37079462109886 C189.49713207139834 62.37079462109886, 189.49713207139834 62.37079462109886, 189.49713207139834 62.37079462109886" stroke="#000000" stroke-width="2" fill="none" vector-effect="non-scaling-stroke" data-shape-part="outline" stroke-opacity="1" fill-opacity="0.1"></path></g></g><g transform="translate(475.81338338147185, 885.7464325638139) rotate(0)"><text transform="translate(0, 14)" style="font-size: 24px; font-family: &quot;Comic Sans MS&quot;; fill: rgb(17, 17, 17); opacity: 1; stroke-width: 0; font-style: normal; font-weight: normal; text-decoration: none;"></text></g></g><g transform="translate(493.16239672185986, 900.3115219193323) rotate(0)"><text transform="translate(0, 0)" style="font-size: 19px; font-family: Roboto; fill: rgb(17, 17, 17); opacity: 1; stroke-width: 0; font-style: normal; font-weight: bold; text-decoration: none;"><tspan dominant-baseline="text-before-edge" x="0" y="0">Who is besys.tech?</tspan></text></g><g transform="translate(511.0255003847534, 386.1093236231822) rotate(0)"><text transform="translate(0, 0)" style="font-size: 26px; font-family: Roboto; fill: rgb(17, 17, 17); opacity: 1; stroke-width: 0; font-style: normal; font-weight: bold; text-decoration: none;"><tspan dominant-baseline="text-before-edge" x="0" y="0">besys.tech</tspan></text></g><g><g transform="translate(903.1631569844643, 1030.0316794712974) rotate(0) scale(0.28077121928628634 0.345743071683111)  "><g><path fill="#616161" stroke="#000000" stroke-width="2" stroke-linecap="round" stroke-linejoin="round" stroke-miterlimit="10" d="  M95.35,0H4.65C2.09,0,0,2.09,0,4.65v90.7C0,97.91,2.09,100,4.65,100h46.24l0.3-38.79H38.06l0.12-15.42h13.19l0.01-1.16  c0.02-3.11-0.01-6.22,0.1-9.33c0.05-1.95,0.15-3.96,0.5-5.91c0.89-4.72,3.08-8.68,7.03-11.52c3.46-2.47,7.4-3.5,11.58-3.6  c0.43-0.01,0.85-0.01,1.28-0.01c2.29,0,4.6,0.12,6.89,0.23c1.49,0.06,2.98,0.27,4.38,0.43l-0.11,13.8c-0.43,0-0.76,0-1.1,0  c-1.51,0-3.03-0.02-4.54-0.02c-1.14,0-2.27,0.01-3.41,0.05c-3.66,0.12-6.35,1.49-6.54,6.06c-0.12,3.29-0.2,10.56-0.2,10.94  c0.19,0,3.81,0.01,7.44,0.01c1.82,0,3.6,0,4.84-0.01c0.94,0,1.89,0,2.96,0c-0.74,5.3-1.42,10.39-2.16,15.51H67.25L66.95,100h28.4  c2.56,0,4.65-2.09,4.65-4.65V4.65C100,2.09,97.91,0,95.35,0z" vector-effect="non-scaling-stroke" stroke-opacity="1" fill-opacity="0.24" transform="scale(1 1)" data-target_data=""></path></g></g></g><g><g transform="translate(950.3727880935401, 1030.0316794712974) rotate(0) scale(0.37358815128175155 0.3286452157892103)  "><g><polygon fill="#616161" stroke="#000000" stroke-width="2" stroke-linecap="round" stroke-linejoin="round" stroke-miterlimit="10" points="  23.09,100 3.88,100 3.88,32.92 23.09,32.92 23.09,100 " vector-effect="non-scaling-stroke" stroke-opacity="1" fill-opacity="0.24" transform="scale(1 1)" data-target_data=""></polygon></g><g><ellipse fill="#616161" stroke="#000000" stroke-width="2" stroke-linecap="round" stroke-linejoin="round" stroke-miterlimit="10" cx="13.67" cy="11.53" rx="11.69" ry="11.53" vector-effect="non-scaling-stroke" stroke-opacity="1" fill-opacity="0.24" transform="scale(1 1)" data-target_data=""></ellipse></g><g><path fill="#616161" stroke="#000000" stroke-width="2" stroke-linecap="round" stroke-linejoin="round" stroke-miterlimit="10" d="  M98.01,100H78.33V60.22c0-0.08,0.29-6.4-3.29-10.17c-1.78-1.88-4.24-2.83-7.3-2.83c-7.7,0-11.59,5.54-13.24,8.9V100H35.28V32.92  H54.5v5.67c6.29-5.1,13.35-7.8,20.47-7.8c18.23,0,23.04,14.24,23.04,21.76L98.01,100L98.01,100z" vector-effect="non-scaling-stroke" stroke-opacity="1" fill-opacity="0.24" transform="scale(1 1)" data-target_data=""></path></g></g></g><g><g transform="translate(160.56841899846083, 1035.1354233749814) rotate(0) scale(0.5047382240432194 0.5047382189604336)  "><g><polygon points="0.5 9.22 0.5 59.12 32.56 50.61 66.51 60.11 100.5 50.73 100.5 1.22 66.81 9.07 32.53 0.5" fill="#616161" stroke="#000000" stroke-width="2" vector-effect="non-scaling-stroke" stroke-opacity="1" fill-opacity="0.24" transform="scale(1 1)" data-target_data=""></polygon></g><g><line x1="32.53" x2="32.53" y1=".5" y2="50.61" fill="#616161" stroke="#000000" stroke-width="2" vector-effect="non-scaling-stroke" stroke-opacity="1" fill-opacity="0.24" transform="scale(1 1)" data-target_data=""></line></g><g><path d="m66.81 9.07" fill="#616161" stroke="#000000" stroke-width="2" vector-effect="non-scaling-stroke" stroke-opacity="1" fill-opacity="0.24" transform="scale(1 1)" data-target_data=""></path></g><g><line x1="66.51" x2="66.81" y1="60.11" y2="9.07" fill="#616161" stroke="#000000" stroke-width="2" vector-effect="non-scaling-stroke" stroke-opacity="1" fill-opacity="0.24" transform="scale(1 1)" data-target_data=""></line></g></g></g><g transform="translate(731.3371122271072, 885.4256022002544) rotate(0)"><text transform="translate(0, 0)" style="font-size: 6px; font-family: &quot;Comic Sans MS&quot;; fill: rgb(17, 17, 17); opacity: 1; stroke-width: 0; font-style: normal; font-weight: normal; text-decoration: none;"><tspan dominant-baseline="text-before-edge" x="0" y="0"> </tspan></text></g><g transform="translate(428.5149739418641, 1027.0544955274818) rotate(0)"><text transform="translate(0, 0)" style="font-size: 19px; font-family: Roboto; fill: rgb(17, 17, 17); opacity: 1; stroke-width: 0; font-style: normal; font-weight: bold; text-decoration: none;"><tspan dominant-baseline="text-before-edge" x="0" y="0">©2024 James Phillip De Guzman </tspan></text></g><g transform="translate(458.2868133800201, 1050.446655086033) rotate(0)"><text transform="translate(0, 0)" style="font-size: 13px; font-family: Roboto; fill: rgb(17, 17, 17); opacity: 1; stroke-width: 0; font-style: normal; font-weight: normal; text-decoration: none;"><tspan dominant-baseline="text-before-edge" x="0" y="0">Last Modified: dd/mm/yyyy hh:mm:ss</tspan></text></g><g><g id="jpfSfFCOHAGzJhhnGJOGy" pointer-events="auto"><g><path data-shape-part="outline" class="" d="M166.891 67.887 C179.0270711331321 67.887, 191.16314226626417 67.887, 204.224 67.887 M166.891 67.887 C175.39563766692447 67.887, 183.90027533384895 67.887, 204.224 67.887" stroke="#000000" stroke-width="3" stroke-opacity="1" fill="none" stroke-linecap="round" stroke-dashoffset="-3"></path></g><path d="M166.891,67.887L204.224,67.887" fill="none" fill-opacity="0" stroke="black" stroke-opacity="0" stroke-width="10" id="hit-jpfSfFCOHAGzJhhnGJOGy"></path></g></g><g><g id="Oa2C7wfA2TP2_UN930lce" pointer-events="auto"><g><path data-shape-part="outline" class="" d="M167.891 80.887 C180.0270711331321 80.887, 192.16314226626417 80.887, 205.224 80.887 M167.891 80.887 C176.39563766692447 80.887, 184.90027533384895 80.887, 205.224 80.887" stroke="#000000" stroke-width="3" stroke-opacity="1" fill="none" stroke-linecap="round" stroke-dashoffset="-3"></path></g><path d="M167.891,80.887L205.224,80.887" fill="none" fill-opacity="0" stroke="black" stroke-opacity="0" stroke-width="10" id="hit-Oa2C7wfA2TP2_UN930lce"></path></g></g><g><g id="_wCTJ6krrZ7S8GIaUF513" pointer-events="auto"><g><path data-shape-part="outline" class="" d="M167.891 92.887 C180.0270711331321 92.887, 192.16314226626417 92.887, 205.224 92.887 M167.891 92.887 C176.39563766692447 92.887, 184.90027533384895 92.887, 205.224 92.887" stroke="#000000" stroke-width="3" stroke-opacity="1" fill="none" stroke-linecap="round" stroke-dashoffset="-3"></path></g><path d="M167.891,92.887L205.224,92.887" fill="none" fill-opacity="0" stroke="black" stroke-opacity="0" stroke-width="10" id="hit-_wCTJ6krrZ7S8GIaUF513"></path></g></g><g><g transform="translate(529.7855406084905, 247.73096935862333) rotate(0) scale(0.9220001220703125 0.5443657807583748)  "><g><path fill="#ABB8C3" stroke="#000000" stroke-linecap="round" stroke-linejoin="round" stroke-miterlimit="10" d="M 85 62.38 L 15 62.38 C 6.75 62.38 0 55.63 0 47.38 L 0 15 C 0 6.75 6.75 0 15 0 L 85 0 C 93.25 0 100 6.75 100 15 L 100 47.38 C 100 55.63 93.25 62.38 85 62.38 Z" stroke-width="2" vector-effect="non-scaling-stroke" stroke-opacity="1" fill-opacity="1" transform="scale(1 1)" data-target_data=""></path></g></g><g transform="translate(534.395541218842, 250.4527983289726) rotate(0)"><text transform="translate(0, 2)" style="font-size: 24px; font-family: &quot;Comic Sans MS&quot;; fill: rgb(17, 17, 17); opacity: 1; stroke-width: 0; font-style: normal; font-weight: normal; text-decoration: none;"></text></g></g><g transform="translate(547.9425621296019, 255.05613323572328) rotate(0)"><text transform="translate(0, 0)" style="font-size: 15px; font-family: Roboto; fill: rgb(17, 17, 17); opacity: 1; stroke-width: 0; font-style: normal; font-weight: normal; text-decoration: none;"><tspan dominant-baseline="text-before-edge" x="0" y="0">Sign Up</tspan></text></g><g><g id="DZVqqbGbC44kIrl4mP3ak" pointer-events="auto"><g><path data-shape-part="outline" class="" d="M588.563 281.689 C588.7181573029522 281.5587206443636, 589.2331885617133 281.81787074430565, 589.716 281.689 M588.563 281.689 C588.8901115231747 281.7569551619789, 589.3930368780661 281.69508871684434, 589.716 281.689" stroke="#000000" stroke-width="2" stroke-opacity="1" fill="none" stroke-linecap="round" stroke-dashoffset="-3"></path></g><path d="M588.563,281.689L589.716,281.689" fill="none" fill-opacity="0" stroke="black" stroke-opacity="0" stroke-width="10" id="hit-DZVqqbGbC44kIrl4mP3ak"></path></g></g><defs><style>@import url("https://www.dafontfree.net/embed/Y29taWMtc2Fucy1tcy1yZWd1bGFyJmRhdGEvNDAvYy8xMDA5MzQvQ09NSUMuVFRG");
@import url("https://fonts.googleapis.com/css2?family=Roboto&amp;display=swap");
@import url("https://fonts.googleapis.com/css2?family=Roboto:wght@700&amp;display=swap");text {white-space: pre;};
</style></defs></svg>