<svg width="56" height="64" viewBox="984 1006 56 64" xmlns="http://www.w3.org/2000/svg" xmlns:xlink="http://www.w3.org/1999/xlink"><g><g transform="translate(994.4572078161546, 1016.3958660477798)  rotate(0)  "><g><path d="M33.99792930041617 0 C24.196580453506364 0, 14.39523160659656 0, 1.6580007472148421 0 M33.99792930041617 0 C21.235617669408985 0, 8.473306038401802 0, 1.6580007472148421 0 M1.6580007472148421 0 C0.7452089379954882 0, 0 0.9176539814985735, 0 2.041670341611659 M1.6580007472148421 0 C0.7452089379954882 0, 0 0.9176539814985735, 0 2.041670341611659 M0 2.041670341611659 C0 14.595803486692443, 0 27.14993663177323, 0 41.86521872530574 M0 2.041670341611659 C0 14.714348850956206, 0 27.387027360300756, 0 41.86521872530574 M0 41.86521872530574 C0 42.98923508541882, 0.7452089379954882 43.906889066917394, 1.6580007472148421 43.906889066917394 M0 41.86521872530574 C0 42.98923508541882, 0.7452089379954882 43.906889066917394, 1.6580007472148421 43.906889066917394 M1.6580007472148421 43.906889066917394 C5.5668443811866 43.906889066917394, 9.475688015158358 43.906889066917394, 18.145302801239424 43.906889066917394 M1.6580007472148421 43.906889066917394 C7.42911471852174 43.906889066917394, 13.200228689828638 43.906889066917394, 18.145302801239424 43.906889066917394 M18.145302801239424 43.906889066917394 C18.167743876697543 40.333806195400896, 18.19018495215566 36.7607233238844, 18.252270591382313 26.875406797860137 M18.145302801239424 43.906889066917394 C18.186032830624665 37.421826859254274, 18.226762860009902 30.936764651591158, 18.252270591382313 26.875406797860137 M18.252270591382313 26.875406797860137 C16.705977473905637 26.875406797860137, 15.15968435642896 26.875406797860137, 13.570646976128364 26.875406797860137 M18.252270591382313 26.875406797860137 C17.03515819796802 26.875406797860137, 15.818045804553725 26.875406797860137, 13.570646976128364 26.875406797860137 M13.570646976128364 26.875406797860137 C13.579952405592838 25.402957167764523, 13.589257835057314 23.930507537668912, 13.613434092185521 20.104964503741474 M13.570646976128364 26.875406797860137 C13.585112592965935 24.586432146781377, 13.599578209803504 22.297457495702616, 13.613434092185521 20.104964503741474 M13.613434092185521 20.104964503741474 C14.98780151001736 20.104964503741474, 16.362168927849197 20.104964503741474, 18.31645126546805 20.104964503741474 M13.613434092185521 20.104964503741474 C14.70601068668144 20.104964503741474, 15.798587281177358 20.104964503741474, 18.31645126546805 20.104964503741474 M18.31645126546805 20.104964503741474 C18.317663038450874 19.931871245599748, 18.318874811433698 19.75877798745802, 18.320016858472812 19.595644590565232 M18.31645126546805 20.104964503741474 C18.317393256077978 19.97040776240287, 18.3183352466879 19.835851021064265, 18.320016858472812 19.595644590565232 M18.320016858472812 19.595644590565232 C18.32714804448234 18.230140340584104, 18.31645126546805 16.86463609060297, 18.355672788520444 15.49913184062184 M18.320016858472812 19.595644590565232 C18.32714804448234 18.230140340584104, 18.31645126546805 16.86463609060297, 18.355672788520444 15.49913184062184 M18.355672788520444 15.49913184062184 C18.37350075354426 14.64294750381695, 18.409156683591892 13.760419033571912, 18.5339524387586 12.904234696767023 M18.355672788520444 15.49913184062184 C18.37350075354426 14.64294750381695, 18.409156683591892 13.760419033571912, 18.5339524387586 12.904234696767023 M18.5339524387586 12.904234696767023 C18.851290216182516 10.831829532808523, 19.632155084225634 9.093116725758595, 21.04056432110706 7.84616107625814 M18.5339524387586 12.904234696767023 C18.851290216182516 10.831829532808523, 19.632155084225634 9.093116725758595, 21.04056432110706 7.84616107625814 M21.04056432110706 7.84616107625814 C22.274259500755093 6.7616609163052805, 23.679103144631753 6.309419958916031, 25.16952102062273 6.265513069849114 M21.04056432110706 7.84616107625814 C22.274259500755093 6.7616609163052805, 23.679103144631753 6.309419958916031, 25.16952102062273 6.265513069849114 M25.16952102062273 6.265513069849114 C25.32284151982755 6.261122380942423, 25.472596426027593 6.261122380942423, 25.62591692523241 6.261122380942423 M25.16952102062273 6.265513069849114 C25.32284151982755 6.261122380942423, 25.472596426027593 6.261122380942423, 25.62591692523241 6.261122380942423 M25.62591692523241 6.261122380942423 C26.442437723323163 6.261122380942423, 27.266089707423436 6.313810647822723, 28.082610505514186 6.362108225796333 M25.62591692523241 6.261122380942423 C26.442437723323163 6.261122380942423, 27.266089707423436 6.313810647822723, 28.082610505514186 6.362108225796333 M28.082610505514186 6.362108225796333 C28.613883863223887 6.388452359236483, 29.145157220933594 6.480656826277009, 29.644340241600425 6.550907848784077 M28.082610505514186 6.362108225796333 C28.613883863223887 6.388452359236483, 29.145157220933594 6.480656826277009, 29.644340241600425 6.550907848784077 M29.644340241600425 6.550907848784077 C29.634779060636927 8.02797023023769, 29.625217879673425 9.505032611691304, 29.60511871854803 12.610058540018677 M29.644340241600425 6.550907848784077 C29.629936169304035 8.776125989718334, 29.615532097007648 11.00134413065259, 29.60511871854803 12.610058540018677 M29.60511871854803 12.610058540018677 C29.451798219343214 12.610058540018677, 29.334133650186033 12.610058540018677, 29.21290348802409 12.610058540018677 M29.60511871854803 12.610058540018677 C29.451798219343214 12.610058540018677, 29.334133650186033 12.610058540018677, 29.21290348802409 12.610058540018677 M29.21290348802409 12.610058540018677 C28.67449894430486 12.610058540018677, 28.132528807580872 12.601277162205294, 27.59412426386164 12.601277162205294 M29.21290348802409 12.610058540018677 C28.67449894430486 12.610058540018677, 28.132528807580872 12.601277162205294, 27.59412426386164 12.601277162205294 M27.59412426386164 12.601277162205294 C27.18764666131865 12.601277162205294, 26.78473465178042 12.605667851111987, 26.378257049237426 12.623230606738753 M27.59412426386164 12.601277162205294 C27.18764666131865 12.601277162205294, 26.78473465178042 12.605667851111987, 26.378257049237426 12.623230606738753 M26.378257049237426 12.623230606738753 C25.07325000949413 12.675918873619056, 24.114105491212857 13.277443253835822, 24.046359224122355 15.283988084193949 M26.378257049237426 12.623230606738753 C25.07325000949413 12.675918873619056, 24.114105491212857 13.277443253835822, 24.046359224122355 15.283988084193949 M24.046359224122355 15.283988084193949 C24.003572108065196 16.72852473449553, 23.97504736402709 19.920555569660426, 23.97504736402709 20.08740174811471 M24.046359224122355 15.283988084193949 C24.003572108065196 16.72852473449553, 23.97504736402709 19.920555569660426, 23.97504736402709 20.08740174811471 M23.97504736402709 20.08740174811471 C24.04279363111759 20.08740174811471, 25.333538298841834 20.0917924370214, 26.627848559570836 20.0917924370214 M23.97504736402709 20.08740174811471 C24.04279363111759 20.08740174811471, 25.333538298841834 20.0917924370214, 26.627848559570836 20.0917924370214 M26.627848559570836 20.0917924370214 C27.276786486437718 20.0917924370214, 27.911462041285553 20.0917924370214, 28.35359557387618 20.08740174811471 M26.627848559570836 20.0917924370214 C27.276786486437718 20.0917924370214, 27.911462041285553 20.0917924370214, 28.35359557387618 20.08740174811471 M28.35359557387618 20.08740174811471 C28.68876131632391 20.08740174811471, 29.027492651776406 20.08740174811471, 29.409011103286055 20.08740174811471 M28.35359557387618 20.08740174811471 C28.68876131632391 20.08740174811471, 29.027492651776406 20.08740174811471, 29.409011103286055 20.08740174811471 M29.409011103286055 20.08740174811471 C29.145157220933587 22.414466868661332, 28.902696896609694 24.64932752216743, 28.638843014257226 26.897360242393596 M29.409011103286055 20.08740174811471 C29.145157220933587 22.414466868661332, 28.902696896609694 24.64932752216743, 28.638843014257226 26.897360242393596 M28.638843014257226 26.897360242393596 C27.60607798890389 26.897360242393596, 26.573312963550553 26.897360242393596, 23.978612957031856 26.897360242393596 M28.638843014257226 26.897360242393596 C27.637700080880414 26.897360242393596, 26.636557147503602 26.897360242393596, 23.978612957031856 26.897360242393596 M23.978612957031856 26.897360242393596 C23.956696374678412 30.38243494364691, 23.934779792324967 33.867509644900224, 23.871645166888964 43.906889066917394 M23.978612957031856 26.897360242393596 C23.951075332473977 31.276267369954503, 23.9235377079161 35.65517449751541, 23.871645166888964 43.906889066917394 M23.871645166888964 43.906889066917394 C27.344182825535402 43.906889066917394, 30.81672048418184 43.906889066917394, 33.99792930041617 43.906889066917394 M23.871645166888964 43.906889066917394 C26.23262450189611 43.906889066917394, 28.593603836903263 43.906889066917394, 33.99792930041617 43.906889066917394 M33.99792930041617 43.906889066917394 C34.910721109635524 43.906889066917394, 35.65593004763101 42.98923508541882, 35.65593004763101 41.86521872530573 M33.99792930041617 43.906889066917394 C34.910721109635524 43.906889066917394, 35.65593004763101 42.98923508541882, 35.65593004763101 41.86521872530573 M35.65593004763101 41.86521872530573 C35.65593004763101 27.267091664245687, 35.65593004763101 12.668964603185643, 35.65593004763101 2.041670341611659 M35.65593004763101 41.86521872530573 C35.65593004763101 32.84129351811206, 35.65593004763101 23.817368310918386, 35.65593004763101 2.041670341611659 M35.65593004763101 2.041670341611659 C35.65593004763101 0.9176539814985735, 34.910721109635524 0, 33.99792930041617 0 M35.65593004763101 2.041670341611659 C35.65593004763101 0.9176539814985735, 34.910721109635524 0, 33.99792930041617 0 M33.99792930041617 0 C33.99792930041617 0, 33.99792930041617 0, 33.99792930041617 0 M33.99792930041617 0 C33.99792930041617 0, 33.99792930041617 0, 33.99792930041617 0" stroke="#000000" stroke-width="2" fill="none" vector-effect="non-scaling-stroke" data-shape-part="outline" stroke-opacity="1" fill-opacity="0.24"></path></g></g></g><defs><style>@import url("https://www.dafontfree.net/embed/Y29taWMtc2Fucy1tcy1yZWd1bGFyJmRhdGEvNDAvYy8xMDA5MzQvQ09NSUMuVFRG");text {white-space: pre;};
</style></defs></svg>