<svg width="67" height="62" viewBox="1045 1006 67 62" xmlns="http://www.w3.org/2000/svg" xmlns:xlink="http://www.w3.org/1999/xlink"><g><g transform="translate(1054.5180445747842, 1016.3958660477798)  rotate(0)  "><g><path d="M1.9467789348418885 13.617426049657354 C1.9467789348418885 13.617426049657354, 1.9467789348418885 13.617426049657354, 1.9467789348418885 13.617426049657354 M1.9467789348418885 13.617426049657354 C1.9467789348418885 13.617426049657354, 1.9467789348418885 13.617426049657354, 1.9467789348418885 13.617426049657354 M2.0799243157095013 25.658284503586362 C4.793386792749603 22.536802995819766, 7.506849269789703 19.415321488053166, 11.264750721576602 15.092350380467554 M2.0799243157095013 25.658284503586362 C5.390178159278388 21.850273062062797, 8.700432002847275 18.04226162053923, 11.264750721576602 15.092350380467554 M1.557010667586603 38.45385253773814 C3.8939992823507996 35.76545466727822, 6.230987897114996 33.0770567968183, 10.741837073453706 27.88791841461933 M1.557010667586603 38.45385253773814 C3.8531473902764555 35.81244939329575, 6.149284112966308 33.17104624885335, 10.741837073453706 27.88791841461933 M8.906805367349794 42.19290560921665 C9.337504015804589 41.697443491001465, 9.768202664259384 41.201981372786285, 10.874982454321314 39.92877686854834 M8.906805367349794 42.19290560921665 C9.341388125870203 41.692975333491816, 9.775970884390613 41.19304505776698, 10.874982454321314 39.92877686854834" stroke="none" stroke-width="1" fill="none" vector-effect="non-scaling-stroke" data-shape-part="fill" stroke-opacity="0.24" fill-opacity="0.24"></path><path d="M10.954592088323508 41.735584061842076 C7.628453085077956 41.735584061842076, 4.302314081832403 41.735584061842076, 1.8407890114970409 41.735584061842076 M10.954592088323508 41.735584061842076 C8.181250415721255 41.735584061842076, 5.407908743119001 41.735584061842076, 1.8407890114970409 41.735584061842076 M1.8407890114970409 41.735584061842076 C1.8407890114970409 31.25377599122026, 1.8407890114970409 20.771967920598446, 1.8407890114970409 13.739353508957043 M1.8407890114970409 41.735584061842076 C1.8407890114970409 33.73992808467932, 1.8407890114970409 25.744272107516565, 1.8407890114970409 13.739353508957043 M1.8407890114970409 13.739353508957043 C4.875846496417637 13.739353508957043, 7.910903981338232 13.739353508957043, 10.954592088323508 13.739353508957043 M1.8407890114970409 13.739353508957043 C4.223635189124052 13.739353508957043, 6.606481366751064 13.739353508957043, 10.954592088323508 13.739353508957043 M10.954592088323508 13.739353508957043 C10.954592088323508 21.703403387567917, 10.954592088323508 29.66745326617879, 10.954592088323508 41.735584061842076 M10.954592088323508 13.739353508957043 C10.954592088323508 20.294900225452103, 10.954592088323508 26.850446941947162, 10.954592088323508 41.735584061842076 M10.954592088323508 41.735584061842076 C10.954592088323508 41.735584061842076, 10.954592088323508 41.735584061842076, 10.954592088323508 41.735584061842076 M10.954592088323508 41.735584061842076 C10.954592088323508 41.735584061842076, 10.954592088323508 41.735584061842076, 10.954592088323508 41.735584061842076" stroke="#000000" stroke-width="2" fill="none" vector-effect="non-scaling-stroke" data-shape-part="outline" stroke-opacity="1" fill-opacity="0.24"></path></g><g><path d="M2.1252227014470058 1.8474279092738564 C2.1252227014470058 1.8474279092738564, 2.1252227014470058 1.8474279092738564, 2.1252227014470058 1.8474279092738564 M2.1252227014470058 1.8474279092738564 C2.1252227014470058 1.8474279092738564, 2.1252227014470058 1.8474279092738564, 2.1252227014470058 1.8474279092738564 M5.538663227267152 10.114738462089003 C7.622733863786836 7.717289443419778, 9.70680450030652 5.319840424750555, 12.099253517172226 2.5676426598612823 M5.538663227267152 10.114738462089003 C6.904620196472262 8.543384719092083, 8.270577165677372 6.972030976095164, 12.099253517172226 2.5676426598612823" stroke="none" stroke-width="1" fill="none" vector-effect="non-scaling-stroke" data-shape-part="fill" stroke-opacity="0.24" fill-opacity="0.24"></path><path d="M12.031548279040923 4.812112730884358 C12.031548279040923 5.090650933032993, 12.003035744766787 5.373420756344206, 11.947290737598692 5.647727337330263 C11.891545730430597 5.92203391831632, 11.806874466534076 6.196211923634656, 11.697078236032354 6.4579522168007015 C11.587282005530632 6.719692509966747, 11.449024705519491 6.976947937341374, 11.288513354588364 7.2181690963265375 C11.128002003657237 7.459390255311701, 10.940359545630747 7.691906528759367, 10.734010130445593 7.90527917071168 C10.52766071526044 8.118651812663991, 10.296334520354067 8.319364042874904, 10.050416863477448 8.498404948040411 C9.804499206600829 8.677445853205919, 9.536518004190103 8.840255500630404, 9.258504189185874 8.979524601704721 C8.980490374181645 9.118793702779039, 8.683996637496785 9.238753878665763, 8.38233397345207 9.334019554486314 C8.080671309407355 9.429285230306865, 7.76467385060446 9.50275100541429, 7.448528204917586 9.551118656628024 C7.132382559230711 9.599486307841758, 6.806482801193078 9.624225461768717, 6.485460099330824 9.624225461768717 C6.1644373974685704 9.624225461768717, 5.838537639430937 9.599486307841758, 5.522391993744063 9.551118656628024 C5.2062463480571886 9.50275100541429, 4.890248889254294 9.429285230306867, 4.588586225209579 9.334019554486316 C4.286923561164865 9.238753878665765, 3.9904298244800063 9.11879370277904, 3.7124160094757768 8.979524601704723 C3.4344021944715473 8.840255500630406, 3.166420992060822 8.67744585320592, 2.9205033351842022 8.498404948040413 C2.6745856783075825 8.319364042874906, 2.44325948340121 8.118651812663995, 2.2369100682160576 7.905279170711682 C2.0305606530309053 7.69190652875937, 1.8429181950044138 7.459390255311703, 1.6824068440732871 7.218169096326541 C1.5218954931421604 6.976947937341379, 1.3836381931310189 6.719692509966752, 1.2738419626292972 6.457952216800706 C1.1640457321275754 6.19621192363466, 1.0793744682310524 5.922033918316325, 1.0236294610629573 5.647727337330268 C0.9678844538948622 5.373420756344212, 0.9393719196207271 5.090650933033, 0.9393719196207266 4.812112730884365 C0.9393719196207262 4.5335745287357305, 0.9678844538948606 4.250804705424518, 1.0236294610629546 3.9764981244384616 C1.0793744682310487 3.7021915434524044, 1.1640457321275701 3.428013538134069, 1.273841962629291 3.166273244968023 C1.3836381931310118 2.9045329518019773, 1.5218954931421529 2.6472775244273508, 1.6824068440732791 2.4060563654421876 C1.8429181950044053 2.1648352064570244, 2.0305606530308955 1.9323189330093575, 2.236910068216048 1.718946291057045 C2.4432594834012002 1.5055736491047325, 2.6745856783075723 1.3048614188938195, 2.920503335184192 1.125820513728312 C3.1664209920608117 0.9467796085628044, 3.4344021944715357 0.7839699611383176, 3.7124160094757648 0.6447008600639998 C3.990429824479994 0.5054317589896821, 4.286923561164853 0.38547158310295576, 4.588586225209567 0.29020590728240503 C4.890248889254281 0.1949402314618543, 5.206246348057175 0.12147445635442974, 5.522391993744049 0.07310680514069556 C5.838537639430922 0.02473915392696139, 6.164437397468555 8.881784197001252e-16, 6.485460099330808 0 C6.806482801193061 -8.881784197001252e-16, 7.132382559230694 0.02473915392695769, 7.448528204917569 0.07310680514069023 C7.764673850604443 0.12147445635442278, 8.080671309407338 0.19494023146184603, 8.382333973452052 0.29020590728239526 C8.683996637496767 0.3854715831029445, 8.980490374181628 0.5054317589896692, 9.258504189185857 0.6447008600639856 C9.536518004190086 0.7839699611383021, 9.804499206600811 0.9467796085627881, 10.050416863477432 1.1258205137282942 C10.296334520354053 1.3048614188938004, 10.527660715260426 1.505573649104711, 10.73401013044558 1.7189462910570223 C10.940359545630733 1.9323189330093338, 11.128002003657226 2.164835206457, 11.288513354588353 2.4060563654421623 C11.44902470551948 2.6472775244273246, 11.587282005530623 2.9045329518019507, 11.697078236032345 3.1662732449679956 C11.806874466534067 3.4280135381340404, 11.891545730430593 3.7021915434523756, 11.947290737598689 3.9764981244384323 C12.003035744766784 4.250804705424489, 12.017505355467216 4.672843629810015, 12.031548279040923 4.812112730884336 C12.045591202614629 4.951381831958657, 12.045591202614627 4.672843629810037, 12.031548279040923 4.812112730884358" stroke="#000000" stroke-width="2" fill="none" vector-effect="non-scaling-stroke" data-shape-part="outline" stroke-opacity="1" fill-opacity="0.24"></path></g><g><path d="M46.49889837511556 41.735584061842076 C43.091380652372926 41.735584061842076, 39.683862929630294 41.735584061842076, 37.162113148890946 41.735584061842076 M46.49889837511556 41.735584061842076 C43.65770295562418 41.735584061842076, 40.816507536132804 41.735584061842076, 37.162113148890946 41.735584061842076 M37.162113148890946 41.735584061842076 C37.162113148890946 35.5196282826593, 37.162113148890946 29.303672503476516, 37.162113148890946 25.133168722041297 M37.162113148890946 41.735584061842076 C37.162113148890946 36.993974251326456, 37.162113148890946 32.252364440810844, 37.162113148890946 25.133168722041297 M37.162113148890946 25.133168722041297 C37.162113148890946 25.099780254791824, 37.29969789053755 22.462091342083404, 35.601237976417416 20.888659822951958 M37.162113148890946 25.133168722041297 C37.162113148890946 25.099780254791824, 37.29969789053755 22.462091342083404, 35.601237976417416 20.888659822951958 M35.601237976417416 20.888659822951958 C34.756752320793446 20.104030842589324, 33.58965416751537 19.707542794001828, 32.13789792807191 19.707542794001828 M35.601237976417416 20.888659822951958 C34.756752320793446 20.104030842589324, 33.58965416751537 19.707542794001828, 32.13789792807191 19.707542794001828 M32.13789792807191 19.707542794001828 C28.484785822282806 19.707542794001828, 26.639252563643897 22.019694151027878, 25.85644282668909 23.42200977550577 M32.13789792807191 19.707542794001828 C28.484785822282806 19.707542794001828, 26.639252563643897 22.019694151027878, 25.85644282668909 23.42200977550577 M25.85644282668909 23.42200977550577 C25.85644282668909 27.96508395796868, 25.85644282668909 32.50815814043159, 25.85644282668909 41.735584061842076 M25.85644282668909 23.42200977550577 C25.85644282668909 30.458870644688755, 25.85644282668909 37.49573151387174, 25.85644282668909 41.735584061842076 M25.85644282668909 41.735584061842076 C23.21564910910783 41.735584061842076, 20.57485539152657 41.735584061842076, 16.73789546652461 41.735584061842076 M25.85644282668909 41.735584061842076 C23.524953845899255 41.735584061842076, 21.19346486510942 41.735584061842076, 16.73789546652461 41.735584061842076 M16.73789546652461 41.735584061842076 C16.73789546652461 32.73663948143173, 16.73789546652461 23.737694901021385, 16.73789546652461 13.739354273158412 M16.73789546652461 41.735584061842076 C16.73789546652461 33.97086685828969, 16.73789546652461 26.206149654737303, 16.73789546652461 13.739354273158412 M16.73789546652461 13.739354273158412 C20.113788397432053 13.739354273158412, 23.4896813283395 13.739354273158412, 25.856442826689094 13.739354273158412 M16.73789546652461 13.739354273158412 C19.38576233486009 13.739354273158412, 22.033629203195567 13.739354273158412, 25.856442826689094 13.739354273158412 M25.856442826689094 13.739354273158412 C25.856442826689094 14.518709087315331, 25.856442826689094 15.29806390147225, 25.856442826689094 16.10576188946486 M25.856442826689094 13.739354273158412 C25.856442826689094 14.276657195448703, 25.856442826689094 14.813960117738992, 25.856442826689094 16.10576188946486 M25.856442826689094 16.10576188946486 C28.84060842998954 13.977247102310912, 32.19008524386889 12.850386332641175, 35.568027866364794 12.850386332641175 M25.856442826689094 16.10576188946486 C28.84060842998954 13.977247102310912, 32.19008524386889 12.850386332641175, 35.568027866364794 12.850386332641175 M35.568027866364794 12.850386332641175 C44.21688938435639 12.850386332641175, 46.49889837511555 18.793533503047485, 46.49889837511555 21.93204942449801 M35.568027866364794 12.850386332641175 C44.21688938435639 12.850386332641175, 46.49889837511555 18.793533503047485, 46.49889837511555 21.93204942449801 M46.49889837511555 21.93204942449801 C46.49889837511555 29.3326548090379, 46.49889837511556 36.73326019357779, 46.49889837511556 41.735584061842076 M46.49889837511555 21.93204942449801 C46.49889837511555 28.592140563770357, 46.49889837511556 35.252231703042696, 46.49889837511556 41.735584061842076 M46.49889837511556 41.735584061842076 C46.49889837511556 41.735584061842076, 46.49889837511556 41.735584061842076, 46.49889837511556 41.735584061842076 M46.49889837511556 41.735584061842076 C46.49889837511556 41.735584061842076, 46.49889837511556 41.735584061842076, 46.49889837511556 41.735584061842076 M46.49889837511556 41.735584061842076 C46.49889837511556 41.735584061842076, 46.49889837511556 41.735584061842076, 46.49889837511556 41.735584061842076 M46.49889837511556 41.735584061842076 C46.49889837511556 41.735584061842076, 46.49889837511556 41.735584061842076, 46.49889837511556 41.735584061842076" stroke="#000000" stroke-width="2" fill="none" vector-effect="non-scaling-stroke" data-shape-part="outline" stroke-opacity="1" fill-opacity="0.24"></path></g></g></g><defs><style>@import url("https://www.dafontfree.net/embed/Y29taWMtc2Fucy1tcy1yZWd1bGFyJmRhdGEvNDAvYy8xMDA5MzQvQ09NSUMuVFRG");text {white-space: pre;};
</style></defs></svg>