<svg width="64" height="54" viewBox="408 414 64 54" xmlns="http://www.w3.org/2000/svg" xmlns:xlink="http://www.w3.org/1999/xlink"><g><g transform="translate(417.60846386379467, 423.51462365849886)  rotate(0)  "><g><path d="M7.582831958546082 -0.03340971009090454 C7.582831958546082 -0.03340971009090454, 7.582831958546082 -0.03340971009090454, 7.582831958546082 -0.03340971009090454 M7.582831958546082 -0.03340971009090454 C7.582831958546082 -0.03340971009090454, 7.582831958546082 -0.03340971009090454, 7.582831958546082 -0.03340971009090454 M7.715977339413692 12.007448743838102 C11.581684449075807 7.560461413313162, 15.447391558737923 3.113474082788221, 18.212921803261807 -0.06790453972624988 M7.715977339413692 12.007448743838102 C11.238704475613057 7.95501473909421, 14.761431611812423 3.902580734350318, 18.212921803261807 -0.06790453972624988 M7.849122720281304 24.04830719776711 C12.169370288943654 19.078430883404565, 16.489617857606003 14.108554569042017, 28.843011647977537 -0.10239936936159566 M7.849122720281304 24.04830719776711 C13.72039496764162 17.294181094210302, 19.59166721500194 10.540054990653497, 28.843011647977537 -0.10239936936159566 M8.63832713013942 35.33445607147334 C19.06786448070532 23.336645801450814, 29.497401831271223 11.338835531428291, 36.84886537673123 2.8819441218941435 M8.63832713013942 35.33445607147334 C18.336656731924222 24.177804094763786, 28.034986333709025 13.021152118054236, 36.84886537673123 2.8819441218941435 M19.268416974855146 35.29996124183799 C24.65403489895879 29.10451652858596, 30.039652823062436 22.909071815333935, 36.32595172860834 15.677512156045923 M19.268416974855146 35.29996124183799 C23.166727559386985 30.815467903857297, 27.065038143918823 26.330974565876605, 36.32595172860834 15.677512156045923 M29.898506819570876 35.26546641220265 C32.0221934045616 32.822444457990244, 34.14587998955232 30.379422503777846, 36.45909710947595 27.71837060997493 M29.898506819570876 35.26546641220265 C32.191178282898264 32.62804959265365, 34.48384974622566 29.990632773104664, 36.45909710947595 27.71837060997493" stroke="none" stroke-width="1" fill="none" vector-effect="non-scaling-stroke" data-shape-part="fill" stroke-opacity="0.24" fill-opacity="0.24"></path><path d="M7.553789340649773 0 C13.59282078726504 0, 19.63185223388031 0, 36.43592559785964 0 M7.553789340649773 0 C14.701992530224604 0, 21.850195719799437 0, 36.43592559785964 0 M36.43592559785964 0 C36.43592559785964 13.52344672014299, 36.43592559785964 27.04689344028598, 36.43592559785964 34.920786250107064 M36.43592559785964 0 C36.43592559785964 13.827314537730382, 36.43592559785964 27.654629075460765, 36.43592559785964 34.920786250107064 M36.43592559785964 34.920786250107064 C25.331533116329716 34.920786250107064, 14.227140634799799 34.920786250107064, 7.553789340649773 34.920786250107064 M36.43592559785964 34.920786250107064 C27.01232191179008 34.920786250107064, 17.588718225720523 34.920786250107064, 7.553789340649773 34.920786250107064 M7.553789340649773 34.920786250107064 C7.553789340649773 24.83015557326668, 7.553789340649773 14.7395248964263, 7.553789340649773 0 M7.553789340649773 34.920786250107064 C7.553789340649773 22.307414554538084, 7.553789340649773 9.694042858969109, 7.553789340649773 0" stroke="#000000" stroke-width="2" fill="none" vector-effect="non-scaling-stroke" data-shape-part="outline" stroke-opacity="1" fill-opacity="0.24"></path></g><g><path d="M11.96942913951513 3.7798010434675358 C11.96942913951513 3.7798010434675358, 11.96942913951513 3.7798010434675358, 11.96942913951513 3.7798010434675358 M11.96942913951513 3.7798010434675358 C11.96942913951513 3.7798010434675358, 11.96942913951513 3.7798010434675358, 11.96942913951513 3.7798010434675358 M12.102574520382742 15.820659497396543 C15.968281630044858 11.373672166871602, 19.833988739706975 6.926684836346661, 22.59951898423086 3.7453062138321904 M12.102574520382742 15.820659497396543 C15.625301656582106 11.76822549265265, 19.148028792781474 7.715791487908758, 22.59951898423086 3.7453062138321904 M12.891778930240859 27.106808371102773 C16.94201102586181 22.447549326387886, 20.992243121482765 17.788290281673, 32.573549799956076 4.465520964419614 M12.891778930240859 27.106808371102773 C18.396096662141154 20.774815149018266, 23.900414394041455 14.442821926933762, 32.573549799956076 4.465520964419614 M23.52186877495659 27.072313541467434 C26.917532098396652 23.166049732622888, 30.313195421836713 19.259785923778345, 32.706695180823694 16.506379418348622 M23.52186877495659 27.072313541467434 C26.679464459258618 23.439915223468972, 29.83706014356065 19.807516905470514, 32.706695180823694 16.506379418348622" stroke="none" stroke-width="1" fill="none" vector-effect="non-scaling-stroke" data-shape-part="fill" stroke-opacity="0.24" fill-opacity="0.24"></path><path d="M12.019191704387111 3.7225557609765216 C16.19178064174485 3.7225557609765216, 20.364369579102583 3.7225557609765216, 31.974921907056853 3.7225557609765216 M12.019191704387111 3.7225557609765216 C16.958148193431768 3.7225557609765216, 21.897104682476424 3.7225557609765216, 31.974921907056853 3.7225557609765216 M31.974921907056853 3.7225557609765216 C31.974921907056853 12.64397372733599, 31.974921907056853 21.565391693695457, 31.974921907056853 26.75979887645128 M31.974921907056853 3.7225557609765216 C31.974921907056853 12.844435330307714, 31.974921907056853 21.96631489963891, 31.974921907056853 26.75979887645128 M31.974921907056853 26.75979887645128 C24.302488730627662 26.75979887645128, 16.63005555419847 26.75979887645128, 12.019191704387111 26.75979887645128 M31.974921907056853 26.75979887645128 C25.463807527519087 26.75979887645128, 18.952693147981325 26.75979887645128, 12.019191704387111 26.75979887645128 M12.019191704387111 26.75979887645128 C12.019191704387111 20.103009695763035, 12.019191704387111 13.446220515074792, 12.019191704387111 3.7225557609765216 M12.019191704387111 26.75979887645128 C12.019191704387111 18.438757414912605, 12.019191704387111 10.117715953373928, 12.019191704387111 3.7225557609765216" stroke="#000000" stroke-width="2" fill="none" vector-effect="non-scaling-stroke" data-shape-part="outline" stroke-opacity="1" fill-opacity="0.24"></path></g><g><path d="M19.31296674614956 30.038635793801728 C19.31296674614956 30.038635793801728, 19.31296674614956 30.038635793801728, 19.31296674614956 30.038635793801728 M19.31296674614956 30.038635793801728 C19.31296674614956 30.038635793801728, 19.31296674614956 30.038635793801728, 19.31296674614956 30.038635793801728" stroke="none" stroke-width="1" fill="none" vector-effect="non-scaling-stroke" data-shape-part="fill" stroke-opacity="0.24" fill-opacity="0.24"></path><path d="M24.81268011881045 30.87346840255704 C24.81268011881045 31.002832263578632, 24.798204951157835 31.134161452328158, 24.769904474013426 31.261559985621815 C24.741603996869017 31.388958518915473, 24.69861831455551 31.51629733672062, 24.64287725594399 31.637859602318983 C24.58713619733247 31.759421867917347, 24.51694609856336 31.878901189235656, 24.435458122344304 31.990933579211994 C24.35397014612525 32.10296596918833, 24.25870832153373 32.210955475301, 24.15394939862965 32.31005394217701 C24.049190475725567 32.409152409053014, 23.931751407647052 32.50237089346214, 23.806904584919813 32.58552438046803 C23.682057762192574 32.66867786747392, 23.546009777283587 32.74429293370156, 23.40486846226622 32.80897486421235 C23.26372714724885 32.873656794723146, 23.113203994687247 32.92937091724504, 22.960056694815595 32.97361596353281 C22.806909394943943 33.01786100982058, 22.646484644551922 33.051981343216596, 22.48598466303632 33.07444514193895 C22.325484681520717 33.09690894066131, 22.160032758160096 33.10839875586695, 21.997056805721982 33.10839875586695 C21.83408085328387 33.10839875586695, 21.668628929923248 33.09690894066131, 21.508128948407645 33.07444514193895 C21.347628966892042 33.051981343216596, 21.187204216500017 33.01786100982058, 21.03405691662837 32.97361596353281 C20.88090961675672 32.92937091724504, 20.73038646419512 32.873656794723146, 20.58924514917775 32.80897486421235 C20.448103834160378 32.74429293370156, 20.31205584925139 32.66867786747392, 20.18720902652415 32.58552438046803 C20.062362203796912 32.50237089346214, 19.944923135718398 32.40915240905302, 19.840164212814315 32.310053942177014 C19.735405289910233 32.210955475301006, 19.64014346531872 32.10296596918833, 19.558655489099664 31.990933579211998 C19.47716751288061 31.87890118923566, 19.4069774141115 31.75942186791735, 19.351236355499978 31.637859602318986 C19.295495296888458 31.516297336720623, 19.252509614574947 31.388958518915477, 19.224209137430538 31.26155998562182 C19.19590866028613 31.13416145232816, 19.181433492633513 31.002832263578636, 19.181433492633513 30.873468402557044 C19.181433492633513 30.744104541535453, 19.19590866028613 30.612775352785928, 19.224209137430538 30.48537681949227 C19.252509614574947 30.357978286198612, 19.295495296888454 30.230639468393466, 19.351236355499974 30.109077202795103 C19.406977414111495 29.98751493719674, 19.4771675128806 29.86803561587843, 19.558655489099657 29.75600322590209 C19.64014346531871 29.643970835925753, 19.735405289910226 29.535981329813083, 19.840164212814308 29.436882862937075 C19.94492313571839 29.337784396061068, 20.062362203796905 29.244565911651947, 20.187209026524144 29.161412424646056 C20.312055849251383 29.078258937640165, 20.44810383416037 29.00264387141253, 20.589245149177742 28.937961940901733 C20.730386464195114 28.873280010390936, 20.880909616756714 28.817565887869044, 21.034056916628362 28.773320841581278 C21.18720421650001 28.72907579529351, 21.347628966892035 28.694955461897486, 21.508128948407638 28.67249166317513 C21.66862892992324 28.650027864452774, 21.83408085328386 28.63853804924713, 21.997056805721975 28.63853804924713 C22.16003275816009 28.63853804924713, 22.32548468152071 28.650027864452774, 22.485984663036312 28.67249166317513 C22.646484644551915 28.694955461897486, 22.806909394943936 28.729075795293507, 22.960056694815584 28.773320841581274 C23.113203994687233 28.81756588786904, 23.263727147248837 28.873280010390932, 23.404868462266208 28.937961940901726 C23.54600977728358 29.00264387141252, 23.682057762192567 29.078258937640154, 23.806904584919806 29.161412424646045 C23.931751407647045 29.244565911651936, 24.04919047572556 29.33778439606106, 24.153949398629642 29.436882862937065 C24.258708321533724 29.53598132981307, 24.35397014612524 29.64397083592574, 24.435458122344297 29.756003225902077 C24.516946098563356 29.868035615878416, 24.587136197332466 29.987514937196725, 24.642877255943986 30.10907720279509 C24.698618314555507 30.230639468393452, 24.74160399686901 30.3579782861986, 24.769904474013423 30.485376819492256 C24.798204951157835 30.612775352785913, 24.80555084467761 30.808786472046233, 24.81268011881045 30.87346840255703 C24.81980939294329 30.938150333067828, 24.819809392943288 30.808786472046243, 24.81268011881045 30.87346840255704" stroke="#000000" stroke-width="2" fill="none" vector-effect="non-scaling-stroke" data-shape-part="outline" stroke-opacity="1" fill-opacity="0.24"></path></g></g></g><defs><style>@import url("https://www.dafontfree.net/embed/Y29taWMtc2Fucy1tcy1yZWd1bGFyJmRhdGEvNDAvYy8xMDA5MzQvQ09NSUMuVFRG");text {white-space: pre;};
</style></defs></svg>