<svg width="85" height="59" viewBox="41 1013 85 59" xmlns="http://www.w3.org/2000/svg" xmlns:xlink="http://www.w3.org/1999/xlink"><g><g transform="translate(51.045467853116314, 1023.0692923542942)  rotate(0)  "><g><path d="M1.5515587938865956 6.799624232958251 L2.7126134944996174 38.056044451036 L21.584294087243727 31.09926738408212 L42.994299910806625 41.07265878434799 L64.66999153755386 34.321049314831896 L64.55277551673133 2.4515234339139775 L40.52351142681739 2.8248388181576267 L21.515573456858814 -1.9293100946343948" stroke="none" stroke-width="0" fill="#616161" fill-rule="evenodd" vector-effect="non-scaling-stroke" data-shape-part="fill" stroke-opacity="0.24" fill-opacity="0.24"></path><path d="M0.32049066237270185 5.9098479258000784 C2.2813925576482426 15.764535382209427, 0.8692931068215975 19.520189157874306, 0.32049066237270185 37.89481485270008 M0.32049066237270185 5.9098479258000784 C1.3399617485528192 17.791324238040513, 1.7811272404914102 31.47564557245641, 0.32049066237270185 37.89481485270008 M0.32049066237270185 37.89481485270008 C9.271743819607796 33.58453833653008, 17.88839567328631 32.20833846319713, 20.87035281396424 32.440064909912685 M0.32049066237270185 37.89481485270008 C7.422194418064006 34.43789769122182, 16.182585790542948 34.16964709185993, 20.87035281396424 32.440064909912685 M20.87035281396424 32.440064909912685 C24.293342684696313 36.546959465755165, 30.467098216969156 34.48361162398205, 42.63166927810064 38.52938743367366 M20.87035281396424 32.440064909912685 C29.82385911175662 33.78935583479374, 37.04196896079078 35.52944318959778, 42.63166927810064 38.52938743367366 M42.63166927810064 38.52938743367366 C47.56771920744697 35.409245673559454, 55.94531551231363 35.61668939676418, 64.41862313691307 32.516981983465655 M42.63166927810064 38.52938743367366 C49.487525669707594 37.71246409707802, 57.60033400962607 32.72201640121571, 64.41862313691307 32.516981983465655 M64.41862313691307 32.516981983465655 C64.14013362289779 20.915083494311617, 63.222865257276226 14.817811311862755, 64.41862313691307 0.7819972266531902 M64.41862313691307 32.516981983465655 C65.12671536623164 22.739960194200734, 64.93164085267706 9.098555980078348, 64.41862313691307 0.7819972266531902 M64.41862313691307 0.7819972266531902 C57.82903348830841 3.4075992342957346, 53.94867380509717 6.802202203667097, 42.82396074134461 5.813700361284031 M64.41862313691307 0.7819972266531902 C56.937166916458686 2.432349351051924, 51.29396390611815 3.774307680169763, 42.82396074134461 5.813700361284031 M42.82396074134461 5.813700361284031 C34.39306118088766 3.063800985068072, 23.980044851003324 1.1606354175378515, 20.851121711520076 0.32049065914531455 M42.82396074134461 5.813700361284031 C35.055485130675656 3.9967980164508576, 29.531118105827012 3.5163458744042395, 20.851121711520076 0.32049065914531455 M20.851121711520076 0.32049065914531455 C14.266974918086852 -0.2846216304294287, 5.181786220397827 5.884176030557819, 0.32049066237270185 5.9098479258000784 M20.851121711520076 0.32049065914531455 C12.190197789487726 1.0422278221500632, 6.9246338655139645 3.633718368290431, 0.32049066237270185 5.9098479258000784" stroke="#000000" stroke-width="2" fill="none" vector-effect="non-scaling-stroke" data-shape-part="outline" stroke-opacity="1" fill-opacity="0.24"></path></g><g><path d="M20.851121711520076 0.32049065914531455 C22.812474177661073 10.205513695436931, 21.40037472683443 13.991503050984075, 20.851121711520076 32.440064909912685 M20.851121711520076 0.32049065914531455 C21.870984270343087 12.253246417619453, 22.312149762281678 25.988847198269053, 20.851121711520076 32.440064909912685" stroke="#000000" stroke-width="2" fill="none" vector-effect="non-scaling-stroke" data-shape-part="outline" stroke-opacity="1" fill-opacity="0.24"></path></g><g><path d="" stroke="none" stroke-width="0" fill="#616161" vector-effect="non-scaling-stroke" data-shape-part="fill" stroke-opacity="0.24" fill-opacity="0.24"></path><path d="" stroke="#000000" stroke-width="2" fill="none" vector-effect="non-scaling-stroke" data-shape-part="outline" stroke-opacity="1" fill-opacity="0.24"></path></g><g><path d="M42.63166927810064 38.52938743367366 C44.419334265054964 33.80340102187512, 43.05057029461914 22.97788787853693, 42.82396074134461 5.813700361284031 M42.63166927810064 38.52938743367366 C43.536228813981005 25.75999192507792, 44.0506488619669 14.79622121874376, 42.82396074134461 5.813700361284031" stroke="#000000" stroke-width="2" fill="none" vector-effect="non-scaling-stroke" data-shape-part="outline" stroke-opacity="1" fill-opacity="0.24"></path></g></g></g><defs><style>@import url("https://www.dafontfree.net/embed/Y29taWMtc2Fucy1tcy1yZWd1bGFyJmRhdGEvNDAvYy8xMDA5MzQvQ09NSUMuVFRG");text {white-space: pre;};
</style></defs></svg>