<?xml version="1.0" encoding="UTF-8"?>
<!-- Generator: visioncortex VTracer 0.6.3 -->
<svg version="1.1" xmlns="http://www.w3.org/2000/svg" width="512" height="195">
<path d="M0 0 C155.1 0 310.2 0 470 0 C469.31 6.17 468.49 11.98 467.15 17.99 C466.97 18.85 466.78 19.7 466.59 20.59 C465.97 23.42 465.35 26.26 464.72 29.09 C464.28 31.12 463.84 33.15 463.39 35.18 C462.2 40.64 461.01 46.09 459.81 51.55 C458.56 57.21 457.32 62.89 456.08 68.56 C454.06 77.83 452.02 87.09 449.99 96.36 C447.61 107.2 445.24 118.03 442.87 128.87 C441.01 137.39 439.14 145.92 437.27 154.44 C436.69 157.13 436.1 159.81 435.51 162.49 C434.6 166.67 433.68 170.84 432.77 175.02 C432.43 176.53 432.1 178.05 431.77 179.57 C431.32 181.63 430.87 183.68 430.42 185.73 C430.04 187.45 430.04 187.45 429.66 189.21 C429 192 429 192 428 195 C272.9 195 117.8 195 -42 195 C-40.88 183.75 -40.88 183.75 -39.81 178.91 C-39.57 177.81 -39.33 176.71 -39.08 175.57 C-38.82 174.4 -38.56 173.23 -38.29 172.02 C-38.01 170.75 -37.74 169.49 -37.45 168.19 C-36.7 164.74 -35.93 161.29 -35.17 157.84 C-34.36 154.17 -33.55 150.5 -32.75 146.83 C-31.21 139.84 -29.67 132.85 -28.13 125.86 C-26.25 117.33 -24.37 108.79 -22.49 100.25 C-21.83 97.21 -21.16 94.17 -20.49 91.13 C-20.32 90.38 -20.16 89.63 -19.99 88.86 C-18.84 83.64 -17.69 78.41 -16.54 73.19 C-13.62 59.92 -10.7 46.66 -7.83 33.39 C-7.47 31.73 -7.47 31.73 -7.11 30.04 C-6.02 25.01 -4.93 19.97 -3.85 14.93 C-3.48 13.21 -3.11 11.49 -2.74 9.77 C-2.57 9 -2.41 8.23 -2.24 7.43 C-1.11 2.23 -1.11 2.23 0 0 Z " fill="#FEF300" transform="translate(42,0)"/>
<path d="M0 0 C7.59 0 15.18 0 23 0 C20.44 16.86 16.71 33.35 13 50 C25.87 50 38.74 50 52 50 C52.66 46.04 53.32 42.08 54 38 C54.47 35.51 54.94 33.03 55.44 30.55 C55.69 29.27 55.95 27.99 56.21 26.67 C56.34 26.03 56.47 25.38 56.6 24.72 C57 22.74 57.4 20.76 57.79 18.78 C58.17 16.87 58.17 16.87 58.56 14.92 C58.79 13.78 59.02 12.64 59.25 11.47 C60.08 7.63 61.05 3.81 62 0 C69.26 0 76.52 0 84 0 C82.87 10.13 82.87 10.13 82.16 13.63 C81.99 14.43 81.83 15.22 81.67 16.04 C81.41 17.28 81.41 17.28 81.14 18.55 C80.96 19.45 80.78 20.34 80.59 21.25 C80 24.13 79.41 27 78.81 29.88 C78.4 31.87 77.99 33.87 77.58 35.87 C74.97 48.49 72.26 61.1 69.42 73.68 C66.84 85.09 64.44 96.55 62 108 C54.74 108 47.48 108 40 108 C40.62 102.38 41.26 97.24 42.41 91.78 C42.65 90.62 42.89 89.47 43.14 88.28 C43.45 86.85 43.75 85.41 44.06 83.94 C45.52 77.04 45.52 77.04 47 70 C34.13 70 21.26 70 8 70 C7.34 74.29 6.68 78.58 6 83 C5.59 85.25 5.17 87.5 4.71 89.74 C4.38 91.37 4.38 91.37 4.05 93.03 C3.83 94.11 3.6 95.2 3.38 96.31 C3.15 97.45 2.92 98.58 2.68 99.75 C2.12 102.5 1.56 105.25 1 108 C-6.59 108 -14.18 108 -22 108 C-21 101.02 -19.7 94.16 -18.31 87.25 C-18.18 86.59 -18.05 85.92 -17.91 85.24 C-15.9 75.2 -13.74 65.21 -11.48 55.23 C-7.36 36.89 -3.73 18.43 0 0 Z " fill="#292624" transform="translate(74,43)"/>
<path d="M0 0 C6.85 4.88 10.39 11.26 12.25 19.38 C12.51 22.17 12.54 24.94 12.5 27.75 C12.5 28.49 12.49 29.24 12.49 30.01 C12.27 43.36 12.27 43.36 9.25 46.38 C7.44 46.47 5.63 46.49 3.81 46.49 C2.65 46.49 1.49 46.49 0.29 46.49 C-1.6 46.48 -1.6 46.48 -3.54 46.47 C-4.82 46.47 -6.11 46.47 -7.43 46.47 C-10.86 46.46 -14.28 46.45 -17.71 46.44 C-21.2 46.43 -24.69 46.43 -28.18 46.42 C-35.04 46.41 -41.89 46.4 -48.75 46.38 C-48.48 48.31 -48.2 50.24 -47.91 52.18 C-47.75 53.25 -47.59 54.33 -47.43 55.44 C-46.47 59.56 -45.12 60.93 -41.75 63.38 C-35.14 66.68 -25.41 64.56 -18.69 62.5 C-14.99 61.24 -11.37 59.85 -7.75 58.38 C-6.79 59.79 -5.83 61.21 -4.88 62.62 C-4.34 63.41 -3.81 64.2 -3.26 65.02 C0.25 70.5 0.25 70.5 0.25 74.38 C-11.55 80.75 -21.84 84.57 -35.44 84.75 C-36.61 84.77 -36.61 84.77 -37.81 84.79 C-46.78 84.72 -54.62 82.06 -61.31 75.95 C-69.45 67.44 -70.34 57.49 -70.22 46.22 C-69.75 32.09 -64.31 17.41 -54.53 6.93 C-50.61 3.52 -46.28 0.89 -41.75 -1.62 C-40.59 -2.28 -40.59 -2.28 -39.41 -2.95 C-27.26 -8.84 -11.3 -6.74 0 0 Z " fill="#2A2724" transform="translate(226.75,67.625)"/>
<path d="M0 0 C22.77 0 45.54 0 69 0 C68.67 2.64 68.34 5.28 68 8 C67.99 8.89 67.97 9.78 67.96 10.7 C67.39 20.25 60.36 25.51 53.67 31.52 C53.12 32.01 52.57 32.5 52 33 C51.24 33.68 50.47 34.36 49.68 35.06 C48.46 36.12 47.23 37.18 45.99 38.23 C42.88 41 39.99 43.99 37.07 46.95 C33.81 50.23 30.44 53.3 26.92 56.3 C24.01 58.88 21.34 61.68 18.66 64.5 C17 66 17 66 15 66 C15 66.66 15 67.32 15 68 C28.2 68 41.4 68 55 68 C53.78 74.69 52.47 81.36 51 88 C27.9 88 4.8 88 -19 88 C-18.01 82.56 -18.01 82.56 -17 77 C-16.66 74.65 -16.66 74.65 -16.31 72.25 C-15.12 67.04 -11.98 64.35 -8 61 C-6.73 59.9 -5.46 58.79 -4.19 57.69 C-3.52 57.11 -2.85 56.54 -2.17 55.95 C0.31 53.72 2.65 51.37 5 49 C7.9 46.07 10.8 43.24 13.94 40.56 C18.3 36.84 22.28 32.75 26.29 28.65 C29.05 25.95 32.03 23.47 35 21 C15.69 20.5 15.69 20.5 -4 20 C-2.87 9.81 -2.87 9.81 -2 6.06 C-1.83 5.33 -1.67 4.6 -1.5 3.85 C-1 2 -1 2 0 0 Z " fill="#292624" transform="translate(370,63)"/>
<path d="M0 0 C7.59 0 15.18 0 23 0 C22.53 2.93 22.05 5.86 21.56 8.88 C21.41 9.8 21.27 10.72 21.12 11.67 C21 12.39 20.88 13.12 20.75 13.87 C20.57 14.98 20.57 14.98 20.39 16.12 C20 18 20 18 19 20 C26.59 20 34.18 20 42 20 C41.26 26.7 40.21 33.37 39 40 C31.08 40.33 23.16 40.66 15 41 C13.99 45.34 12.99 49.67 12.01 54.01 C11.67 55.48 11.34 56.95 10.99 58.42 C7.57 71.62 7.57 71.62 8 85 C11.58 88.59 15.41 88.54 20.25 88.69 C21 88.72 21.74 88.76 22.51 88.79 C24.34 88.87 26.17 88.94 28 89 C27.72 91.04 27.42 93.08 27.12 95.12 C26.96 96.26 26.8 97.4 26.63 98.57 C26.02 101.88 25.25 104.87 24 108 C17.72 111.14 6.8 109.88 0.28 107.84 C-7.26 104.2 -11.81 99.87 -15 92 C-17.61 75.35 -12.41 58.53 -8.68 42.42 C-6.6 33.38 -4.79 24.29 -3 15.19 C-2.69 13.65 -2.39 12.11 -2.08 10.57 C-1.39 7.04 -0.69 3.52 0 0 Z " fill="#2A2624" transform="translate(317,43)"/>
<path d="M0 0 C1.18 -0 1.18 -0 2.38 -0 C3.19 -0 4 0 4.84 0.01 C5.66 0 6.47 0 7.31 -0 C8.09 -0 8.88 -0 9.69 0 C10.4 0 11.11 0 11.85 0 C13.78 0.13 13.78 0.13 16.78 1.13 C16.11 7.88 15.06 14.48 13.78 21.13 C12.4 21.15 12.4 21.15 11 21.18 C0.38 21.52 0.38 21.52 -8.22 27.13 C-11.16 31.82 -12.93 35.86 -14.21 41.29 C-14.37 41.97 -14.53 42.65 -14.7 43.35 C-16.81 52.4 -18.64 61.52 -20.47 70.63 C-20.84 72.44 -21.21 74.24 -21.57 76.05 C-22.46 80.41 -23.34 84.77 -24.22 89.13 C-31.81 89.13 -39.4 89.13 -47.22 89.13 C-45.55 79.91 -43.79 70.71 -41.93 61.52 C-41.58 59.81 -41.24 58.11 -40.91 56.4 C-33.01 16.36 -33.01 16.36 -18.22 6.13 C-12.32 2.71 -6.91 0.01 0 0 Z " fill="#2A2724" transform="translate(286.22265625,61.8671875)"/>
<path d="M0 0 C2.99 2.2 4.51 4.38 6.24 7.65 C6.24 9.63 6.24 11.61 6.24 13.65 C-5.64 13.65 -17.52 13.65 -29.76 13.65 C-27.32 7.55 -24.42 3.67 -19.2 -0.29 C-13.13 -2.16 -5.82 -2.85 0 0 Z " fill="#FBF000" transform="translate(212.7578125,81.34765625)"/>
<path d="M0 0 C4.63 2.26 4.63 2.26 6 5 C6.57 9.67 6.44 13.12 4.31 17.38 C1.38 20.7 -0.68 22.62 -5.14 23.35 C-9.36 23.62 -11.46 23.35 -15.06 21 C-17.07 17.89 -17.74 15.78 -17.48 12.06 C-16.3 7 -13.3 3.86 -9.06 1.06 C-5.71 -0.1 -3.51 -0.45 0 0 Z " fill="#EFE502" transform="translate(448,129)"/>
<path d="M0 0 C4.63 2.26 4.63 2.26 6 5 C6.57 9.67 6.44 13.12 4.31 17.38 C1.38 20.7 -0.68 22.62 -5.14 23.35 C-9.36 23.62 -11.46 23.35 -15.06 21 C-17.07 17.89 -17.74 15.78 -17.48 12.06 C-16.3 7 -13.3 3.86 -9.06 1.06 C-5.71 -0.1 -3.51 -0.45 0 0 Z M-14 8 C-15.6 11.2 -15.49 14.52 -15 18 C-13.54 20.63 -13.54 20.63 -11 22 C-6.47 22.81 -3.33 21.65 0.45 19.26 C3.04 17.15 4.01 15.16 5 12 C4.94 8.23 4.82 5.98 2.38 3.06 C-4.78 -0.14 -9.17 2.73 -14 8 Z " fill="#4A461E" transform="translate(448,129)"/>
<path d="M0 0 C4.27 -0.42 6.38 -0.42 10 2 C12.34 5.51 12.5 7.04 11.73 11.06 C10.57 14.15 8.5 15.95 6 18 C4.6 13.1 4.94 9.63 7 5 C4.03 4.67 1.06 4.34 -2 4 C-1.34 2.68 -0.68 1.36 0 0 Z " fill="#F4E901" transform="translate(441,131)"/>
<path d="M0 0 C6.75 -0.12 6.75 -0.12 9 1 C8.33 4.33 7.67 7.67 7 11 C6.01 11 5.02 11 4 11 C4 10.01 4 9.02 4 8 C3.01 8 2.02 8 1 8 C1 8.99 1 9.98 1 11 C0.01 10.67 -0.98 10.34 -2 10 C-1.34 6.7 -0.68 3.4 0 0 Z " fill="#48431F" transform="translate(439,135)"/>
<path d="M0 0 C-0.33 1.65 -0.66 3.3 -1 5 C-1.99 5 -2.98 5 -4 5 C-4 4.01 -4 3.02 -4 2 C-4.99 2 -5.98 2 -7 2 C-7 2.99 -7 3.98 -7 5 C-7.99 4.67 -8.98 4.34 -10 4 C-9.38 2.06 -9.38 2.06 -8 0 C-2.81 -1.41 -2.81 -1.41 0 0 Z " fill="#332F22" transform="translate(447,141)"/>
<path d="M0 0 C1.65 0 3.3 0 5 0 C5 1.32 5 2.64 5 4 C2.69 4.33 0.38 4.66 -2 5 C-1.34 3.35 -0.68 1.7 0 0 Z " fill="#938C12" transform="translate(440,137)"/>
</svg>
